<?xml version="1.0" encoding="UTF-8"?>
<svg width="34px" height="20px" viewBox="0 0 34 20" version="1.1" xmlns="http://www.w3.org/2000/svg" xmlns:xlink="http://www.w3.org/1999/xlink">
    <title>Logos/Mono/Amazon web services</title>
    <g id="Page-1" stroke="none" stroke-width="1" fill="none" fill-rule="evenodd">
        <g id="deckglsummit2022-medium" transform="translate(-224.000000, -5121.000000)" fill="#6F777C">
            <g id="Amazon_Web_Services_Logo" transform="translate(224.087302, 5121.000000)">
                <path d="M9.48888889,7.26666667 C9.48888889,7.67777778 9.53333333,8.01111111 9.61111111,8.25555556 C9.7,8.5 9.81111111,8.76666667 9.96666667,9.05555556 C10.0222222,9.14444444 10.0444444,9.23333333 10.0444444,9.31111111 C10.0444444,9.42222222 9.97777778,9.53333333 9.83333333,9.64444444 L9.13333333,10.1111111 C9.03333333,10.1777778 8.93333333,10.2111111 8.84444444,10.2111111 C8.73333333,10.2111111 8.62222222,10.1555556 8.51111111,10.0555556 C8.35555556,9.88888889 8.22222222,9.71111111 8.11111111,9.53333333 C8,9.34444444 7.88888889,9.13333333 7.76666667,8.87777778 C6.9,9.9 5.81111111,10.4111111 4.5,10.4111111 C3.56666667,10.4111111 2.82222222,10.1444444 2.27777778,9.61111111 C1.73333333,9.07777778 1.45555556,8.36666667 1.45555556,7.47777778 C1.45555556,6.53333333 1.78888889,5.76666667 2.46666667,5.18888889 C3.14444444,4.61111111 4.04444444,4.32222222 5.18888889,4.32222222 C5.56666667,4.32222222 5.95555556,4.35555556 6.36666667,4.41111111 C6.77777778,4.46666667 7.2,4.55555556 7.64444444,4.65555556 L7.64444444,3.84444444 C7.64444444,3 7.46666667,2.41111111 7.12222222,2.06666667 C6.76666667,1.72222222 6.16666667,1.55555556 5.31111111,1.55555556 C4.92222222,1.55555556 4.52222222,1.6 4.11111111,1.7 C3.7,1.8 3.3,1.92222222 2.91111111,2.07777778 C2.73333333,2.15555556 2.6,2.2 2.52222222,2.22222222 C2.44444444,2.24444444 2.38888889,2.25555556 2.34444444,2.25555556 C2.18888889,2.25555556 2.11111111,2.14444444 2.11111111,1.91111111 L2.11111111,1.36666667 C2.11111111,1.18888889 2.13333333,1.05555556 2.18888889,0.977777778 C2.24444444,0.9 2.34444444,0.822222222 2.5,0.744444444 C2.88888889,0.544444444 3.35555556,0.377777778 3.9,0.244444444 C4.44444444,0.1 5.02222222,0.0333333333 5.63333333,0.0333333333 C6.95555556,0.0333333333 7.92222222,0.333333333 8.54444444,0.933333333 C9.15555556,1.53333333 9.46666667,2.44444444 9.46666667,3.66666667 L9.46666667,7.26666667 L9.48888889,7.26666667 Z M4.97777778,8.95555556 C5.34444444,8.95555556 5.72222222,8.88888889 6.12222222,8.75555556 C6.52222222,8.62222222 6.87777778,8.37777778 7.17777778,8.04444444 C7.35555556,7.83333333 7.48888889,7.6 7.55555556,7.33333333 C7.62222222,7.06666667 7.66666667,6.74444444 7.66666667,6.36666667 L7.66666667,5.9 C7.34444444,5.82222222 7,5.75555556 6.64444444,5.71111111 C6.28888889,5.66666667 5.94444444,5.64444444 5.6,5.64444444 C4.85555556,5.64444444 4.31111111,5.78888889 3.94444444,6.08888889 C3.57777778,6.38888889 3.4,6.81111111 3.4,7.36666667 C3.4,7.88888889 3.53333333,8.27777778 3.81111111,8.54444444 C4.07777778,8.82222222 4.46666667,8.95555556 4.97777778,8.95555556 Z M13.9,10.1555556 C13.7,10.1555556 13.5666667,10.1222222 13.4777778,10.0444444 C13.3888889,9.97777778 13.3111111,9.82222222 13.2444444,9.61111111 L10.6333333,1.02222222 C10.5666667,0.8 10.5333333,0.655555556 10.5333333,0.577777778 C10.5333333,0.4 10.6222222,0.3 10.8,0.3 L11.8888889,0.3 C12.1,0.3 12.2444444,0.333333333 12.3222222,0.411111111 C12.4111111,0.477777778 12.4777778,0.633333333 12.5444444,0.844444444 L14.4111111,8.2 L16.1444444,0.844444444 C16.2,0.622222222 16.2666667,0.477777778 16.3555556,0.411111111 C16.4444444,0.344444444 16.6,0.3 16.8,0.3 L17.6888889,0.3 C17.9,0.3 18.0444444,0.333333333 18.1333333,0.411111111 C18.2222222,0.477777778 18.3,0.633333333 18.3444444,0.844444444 L20.1,8.28888889 L22.0222222,0.844444444 C22.0888889,0.622222222 22.1666667,0.477777778 22.2444444,0.411111111 C22.3333333,0.344444444 22.4777778,0.3 22.6777778,0.3 L23.7111111,0.3 C23.8888889,0.3 23.9888889,0.388888889 23.9888889,0.577777778 C23.9888889,0.633333333 23.9777778,0.688888889 23.9666667,0.755555556 C23.9555556,0.822222222 23.9333333,0.911111111 23.8888889,1.03333333 L21.2111111,9.62222222 C21.1444444,9.84444444 21.0666667,9.98888889 20.9777778,10.0555556 C20.8888889,10.1222222 20.7444444,10.1666667 20.5555556,10.1666667 L19.6,10.1666667 C19.3888889,10.1666667 19.2444444,10.1333333 19.1555556,10.0555556 C19.0666667,9.97777778 18.9888889,9.83333333 18.9444444,9.61111111 L17.2222222,2.44444444 L15.5111111,9.6 C15.4555556,9.82222222 15.3888889,9.96666667 15.3,10.0444444 C15.2111111,10.1222222 15.0555556,10.1555556 14.8555556,10.1555556 L13.9,10.1555556 Z M28.1777778,10.4555556 C27.6,10.4555556 27.0222222,10.3888889 26.4666667,10.2555556 C25.9111111,10.1222222 25.4777778,9.97777778 25.1888889,9.81111111 C25.0111111,9.71111111 24.8888889,9.6 24.8444444,9.5 C24.8,9.4 24.7777778,9.28888889 24.7777778,9.18888889 L24.7777778,8.62222222 C24.7777778,8.38888889 24.8666667,8.27777778 25.0333333,8.27777778 C25.1,8.27777778 25.1666667,8.28888889 25.2333333,8.31111111 C25.3,8.33333333 25.4,8.37777778 25.5111111,8.42222222 C25.8888889,8.58888889 26.3,8.72222222 26.7333333,8.81111111 C27.1777778,8.9 27.6111111,8.94444444 28.0555556,8.94444444 C28.7555556,8.94444444 29.3,8.82222222 29.6777778,8.57777778 C30.0555556,8.33333333 30.2555556,7.97777778 30.2555556,7.52222222 C30.2555556,7.21111111 30.1555556,6.95555556 29.9555556,6.74444444 C29.7555556,6.53333333 29.3777778,6.34444444 28.8333333,6.16666667 L27.2222222,5.66666667 C26.4111111,5.41111111 25.8111111,5.03333333 25.4444444,4.53333333 C25.0777778,4.04444444 24.8888889,3.5 24.8888889,2.92222222 C24.8888889,2.45555556 24.9888889,2.04444444 25.1888889,1.68888889 C25.3888889,1.33333333 25.6555556,1.02222222 25.9888889,0.777777778 C26.3222222,0.522222222 26.7,0.333333333 27.1444444,0.2 C27.5888889,0.0666666667 28.0555556,0.0111111111 28.5444444,0.0111111111 C28.7888889,0.0111111111 29.0444444,0.0222222222 29.2888889,0.0555555556 C29.5444444,0.0888888889 29.7777778,0.133333333 30.0111111,0.177777778 C30.2333333,0.233333333 30.4444444,0.288888889 30.6444444,0.355555556 C30.8444444,0.422222222 31,0.488888889 31.1111111,0.555555556 C31.2666667,0.644444444 31.3777778,0.733333333 31.4444444,0.833333333 C31.5111111,0.922222222 31.5444444,1.04444444 31.5444444,1.2 L31.5444444,1.72222222 C31.5444444,1.95555556 31.4555556,2.07777778 31.2888889,2.07777778 C31.2,2.07777778 31.0555556,2.03333333 30.8666667,1.94444444 C30.2333333,1.65555556 29.5222222,1.51111111 28.7333333,1.51111111 C28.1,1.51111111 27.6,1.61111111 27.2555556,1.82222222 C26.9111111,2.03333333 26.7333333,2.35555556 26.7333333,2.81111111 C26.7333333,3.12222222 26.8444444,3.38888889 27.0666667,3.6 C27.2888889,3.81111111 27.7,4.02222222 28.2888889,4.21111111 L29.8666667,4.71111111 C30.6666667,4.96666667 31.2444444,5.32222222 31.5888889,5.77777778 C31.9333333,6.23333333 32.1,6.75555556 32.1,7.33333333 C32.1,7.81111111 32,8.24444444 31.8111111,8.62222222 C31.6111111,9 31.3444444,9.33333333 31,9.6 C30.6555556,9.87777778 30.2444444,10.0777778 29.7666667,10.2222222 C29.2666667,10.3777778 28.7444444,10.4555556 28.1777778,10.4555556 Z" id="Shape" fill-rule="nonzero"></path>
                <g id="Group" transform="translate(0.000000, 12.444444)">
                    <path d="M30.2777778,3.41111111 C26.6222222,6.11111111 21.3111111,7.54444444 16.7444444,7.54444444 C10.3444444,7.54444444 4.57777778,5.17777778 0.222222222,1.24444444 C-0.122222222,0.933333333 0.188888889,0.511111111 0.6,0.755555556 C5.31111111,3.48888889 11.1222222,5.14444444 17.1333333,5.14444444 C21.1888889,5.14444444 25.6444444,4.3 29.7444444,2.56666667 C30.3555556,2.28888889 30.8777778,2.96666667 30.2777778,3.41111111 Z" id="Path"></path>
                    <path d="M31.8,1.67777778 C31.3333333,1.07777778 28.7111111,1.38888889 27.5222222,1.53333333 C27.1666667,1.57777778 27.1111111,1.26666667 27.4333333,1.03333333 C29.5222222,-0.433333333 32.9555556,-0.0111111111 33.3555556,0.477777778 C33.7555556,0.977777778 33.2444444,4.41111111 31.2888889,6.05555556 C30.9888889,6.31111111 30.7,6.17777778 30.8333333,5.84444444 C31.2777778,4.74444444 32.2666667,2.26666667 31.8,1.67777778 Z" id="Path"></path>
                </g>
            </g>
        </g>
    </g>
</svg>