<?xml version="1.0" encoding="UTF-8"?>
<svg width="68px" height="20px" viewBox="0 0 68 20" version="1.1" xmlns="http://www.w3.org/2000/svg" xmlns:xlink="http://www.w3.org/1999/xlink">
    <title>Partner Logos/Azure/Azure</title>
    <g id="Page-1" stroke="none" stroke-width="1" fill="none" fill-rule="evenodd">
        <g id="deckglsummit2022-medium" transform="translate(-219.000000, -6302.000000)" fill="#6A7479" fill-rule="nonzero">
            <g id="Partner-Logos/Azure/Azure" transform="translate(217.051339, 6300.129941)">
                <g id="Microsoft_Azure_Logo" transform="translate(2.651781, 2.057495)">
                    <path d="M14.4373243,1.35745919 C14.4431439,1.34733858 16.5502174,4.9851431 19.5450086,10.1757589 C22.348787,15.0353063 24.6603663,19.0420206 24.6818517,19.0795667 L24.7209178,19.1478333 L15.1913821,19.1466041 L5.66184818,19.1453799 L11.4365099,18.125273 C14.6125738,17.5642109 17.2358212,17.099935 17.2659497,17.0935457 L17.3207292,17.0819285 L14.3222118,13.5152861 C12.6730285,11.5536325 11.3236959,9.94103737 11.3236959,9.93174154 C11.3236959,9.91414174 14.4199184,1.38781418 14.4373243,1.35745919 Z M13.609566,6.56682594e-05 C13.6161891,-0.00238828198 13.5897157,0.0642419302 13.5507361,0.148203123 C13.5117565,0.232164315 11.7238284,4.06708181 9.57756248,8.67024169 L5.67526176,17.0396231 L2.83763088,17.0431807 L0.833554203,17.0430132 C0.693284937,17.0427379 0.56752628,17.0423977 0.458796606,17.0419977 L0.264788754,17.0411191 C0.0949785803,17.0401637 0,17.0389819 0,17.0376134 C0,17.0325937 1.41288688,14.579933 3.13974857,11.5872562 L6.27949664,6.14602599 L9.93851006,3.07537449 C11.9509674,1.38651654 13.6029429,0.00265886328 13.609566,6.56682594e-05 Z M47.9811638,17.2626973 C46.5305815,17.1696951 45.6869168,16.3437011 45.4633504,14.7976248 C45.4038794,14.3863432 45.4036521,14.3756722 45.3975661,11.705641 L45.3916755,9.12149725 L46.0336658,9.12149725 L46.6756541,9.12149725 L46.6807097,11.6210302 C46.6852667,13.8737898 46.6881258,14.1379228 46.7096635,14.2963979 C46.7970729,14.9395544 46.9710902,15.372063 47.2673548,15.6825101 C47.5044612,15.930966 47.7820317,16.0764433 48.1662628,16.153638 C48.3475338,16.1900558 48.8632061,16.1901287 49.0284742,16.1537879 C49.4180093,16.0680648 49.7302178,15.898552 50.0056332,15.623241 C50.3195491,15.3094436 50.5517777,14.8642305 50.664145,14.3607826 L50.7020163,14.1911024 L50.7062335,11.6704164 L50.7104507,9.14973098 L51.3658811,9.14973098 L52.0213129,9.14973098 L52.0213129,13.1123195 L52.0213129,17.0749076 L51.3726331,17.0749076 L50.7239533,17.0749076 L50.7239533,16.4462055 C50.7239533,16.0190229 50.7192714,15.8190634 50.709352,15.8223702 C50.7013228,15.8250484 50.6680075,15.876013 50.6353182,15.9356284 C50.4117803,16.3433054 50.0393418,16.7161241 49.6312351,16.9407353 C49.1420482,17.2099698 48.6514573,17.3057037 47.9811653,17.2627273 L47.9811638,17.2626973 Z M62.7046954,17.2562936 C62.1926383,17.2178041 61.6534711,17.0417567 61.212789,16.7691633 C60.2839699,16.1946187 59.7343912,15.2475827 59.5734762,13.9442915 C59.5177927,13.4933037 59.5111001,12.8875119 59.5575667,12.5042951 C59.6613907,11.6480233 59.9978666,10.807435 60.4770086,10.2073309 C60.599839,10.0534916 60.8784892,9.77484183 61.032322,9.65201947 C61.4477354,9.32034608 61.9336444,9.08841324 62.449547,8.97555275 C62.7501367,8.90979496 63.2794794,8.87891998 63.5988386,8.90851781 C64.4010933,8.98287089 65.1363691,9.36059982 65.6361179,9.95511651 C66.1438555,10.5591385 66.4229355,11.403157 66.4585748,12.4424567 C66.4641606,12.6053315 66.4655147,12.8908917 66.4615878,13.0770349 L66.4544425,13.4154765 L63.6446711,13.4190341 L60.8348997,13.4225917 L60.8348997,13.5479784 C60.8348997,13.9296822 60.927699,14.3644312 61.0881289,14.7343224 C61.2264754,15.0532968 61.4646212,15.4016098 61.6596061,15.5701678 C62.0594058,15.9157816 62.5487081,16.1226511 63.0841272,16.1724345 C63.2826542,16.1908922 63.7886034,16.1714601 64.0148416,16.1366982 C64.6603135,16.0375022 65.2739776,15.7843324 65.7695478,15.4127879 C65.827853,15.369074 65.8836504,15.3282326 65.8935413,15.3220307 C65.9080157,15.3129548 65.9114364,15.4271648 65.9110702,15.9072527 L65.9106205,16.5037523 L65.7778372,16.5858752 C65.2172244,16.9326002 64.5749843,17.1552372 63.8949832,17.2385798 C63.6920506,17.2634508 62.9473916,17.2745304 62.7047034,17.2562886 L62.7046954,17.2562936 Z M65.1500295,12.2253735 C65.1500295,11.585994 64.8805861,10.8757226 64.4992936,10.5099887 C64.2271809,10.2489787 63.8982326,10.0894667 63.507177,10.0288975 C63.322168,10.0002415 62.9322437,10.0112782 62.7371868,10.0506915 C62.3248439,10.1340101 61.9837821,10.3152836 61.6863083,10.6092307 C61.3732359,10.9185916 61.1385109,11.2943364 60.9908925,11.7224453 C60.9378108,11.8763885 60.8757251,12.1291255 60.8564539,12.26971 L60.847272,12.3366935 L62.99865,12.3366935 L65.1500295,12.3366935 L65.1500295,12.2253735 Z M27.0359973,17.0572504 C27.0392886,17.0475553 27.9934206,14.5409929 29.1562923,11.4871117 L31.270604,5.93451607 L31.949944,5.93451607 L32.6292824,5.93451607 L32.6856475,6.079059 C32.857893,6.5207694 36.9183501,17.0628376 36.9183501,17.0683145 C36.9183501,17.0719221 36.5931288,17.0747726 36.195636,17.0747726 L35.4729218,17.0746218 L34.8876998,15.5165165 L34.3024778,13.9584116 L31.9461015,13.9583831 L29.5897248,13.9583551 L29.5692474,14.0112365 C29.5579859,14.0403212 29.3079523,14.7414186 29.0136152,15.5692319 L28.4784598,17.074344 L27.7542368,17.0745938 C27.1809829,17.0747726 27.0312619,17.0711661 27.0359973,17.0572134 L27.0359973,17.0572504 Z M33.8723747,12.7693569 C33.8723747,12.7668886 33.478543,11.6992087 32.9971929,10.3967395 C32.09667,7.96004424 32.0462944,7.81343419 31.9751452,7.42223771 C31.9417819,7.23879864 31.9249006,7.23370103 31.9050978,7.40108527 C31.8909422,7.52072975 31.8295645,7.7884503 31.7822465,7.93695159 C31.7587681,8.01063312 31.3532431,9.12364882 30.8810789,10.4103194 C30.4089158,11.6969902 30.0226001,12.7551494 30.0226001,12.761784 C30.0226001,12.7684191 30.8887998,12.7738475 31.9474876,12.7738475 C33.0061754,12.7738475 33.8723747,12.7718288 33.8723747,12.7693554 L33.8723747,12.7693569 Z M37.355504,16.8719495 L37.355504,16.6690209 L39.7031741,13.4417015 L42.0508441,10.2143817 L39.9252764,10.2073309 L37.7997088,10.2002801 L37.7960162,9.66088857 L37.7923237,9.12149725 L40.8666707,9.12149725 L43.9410173,9.12149725 L43.9410173,9.30367915 L43.9410173,9.48586091 L41.5930779,12.7307806 C40.3017112,14.5154868 39.2451385,15.9787027 39.2451385,15.9823723 C39.2451385,15.9860399 40.2890197,15.9890439 41.5648741,15.9890439 L43.8846102,15.9890439 L43.8846102,16.5319605 L43.8846102,17.0748776 L40.6200566,17.0748776 L37.355504,17.0748776 L37.355504,16.8719495 Z M54.5831276,17.0654759 C54.5779566,17.0603063 54.5737259,15.2707958 54.5737259,13.0887861 L54.5737259,9.12149725 L55.2153554,9.12149725 L55.8569844,9.12149725 L55.8569844,9.93939795 C55.8569844,10.3892435 55.8624543,10.7572988 55.8691414,10.7572988 C55.8758284,10.7572988 55.9070567,10.6836638 55.9385372,10.5936656 C56.0827968,10.1812597 56.3329716,9.79590983 56.6552823,9.4896449 C56.9456368,9.21374543 57.2774863,9.0487561 57.6690575,8.98561557 C57.7790514,8.96787885 57.8721225,8.96449261 58.0921098,8.9702228 C58.3683882,8.97741901 58.5128307,8.99761409 58.6808575,9.05253708 L58.7337388,9.06982259 L58.7337388,9.73582676 L58.7337388,10.4018306 L58.5821451,10.325947 C58.3143631,10.1919026 58.0501417,10.1388569 57.7325153,10.1553729 C57.5257992,10.1661223 57.3901169,10.1926661 57.2248527,10.2546899 C56.8848193,10.3823046 56.6090031,10.6075543 56.4162762,10.915026 C56.1372746,11.3601386 55.9382879,11.9322863 55.8795979,12.4581438 C55.8690654,12.5525131 55.862855,13.3210797 55.8603812,14.8362266 L55.8567286,17.0748776 L55.2246283,17.0748776 C54.8769738,17.0748776 54.5882982,17.0706455 54.5831286,17.0654759 L54.5831276,17.0654759 Z" id="path21"></path>
                </g>
            </g>
        </g>
    </g>
</svg>