<?xml version="1.0" encoding="UTF-8"?>
<svg width="73px" height="28px" viewBox="0 0 73 28" version="1.1" xmlns="http://www.w3.org/2000/svg" xmlns:xlink="http://www.w3.org/1999/xlink">
    <title>Logo / Desktop / Negative Copy 2</title>
    <g id="Page-1" stroke="none" stroke-width="1" fill="none" fill-rule="evenodd">
        <g id="deckglsummit2022-medium" transform="translate(-597.000000, -7668.000000)" fill="#657479">
            <g id="Logo" transform="translate(597.778474, 7668.000000)">
                <path d="M57.2770812,28 C65.0090677,28 71.2770812,21.7319865 71.2770812,14 C71.2770812,6.2680135 65.0090677,0 57.2770812,0 C49.5450947,0 43.2770812,6.2680135 43.2770812,14 C43.2770812,21.7319865 49.5450947,28 57.2770812,28 Z" id="Halo" fill-opacity="0.1"></path>
                <path d="M4.58482155,18.6523571 C6.5406734,18.6523571 7.67100337,17.7977349 8.50922559,16.6369793 L6.65497643,15.3104015 C6.12156229,15.9609349 5.57544781,16.3946237 4.64832323,16.3946237 C3.40369024,16.3946237 2.527367,15.3486682 2.527367,14.0093349 L2.527367,13.9838237 C2.527367,12.6827571 3.40369024,11.6112904 4.64832323,11.6112904 C5.49924579,11.6112904 6.08346128,12.0322237 6.59147475,12.657246 L8.44572391,11.2158682 C7.65830303,10.131646 6.48987205,9.36631263 4.67372391,9.36631263 C1.98125253,9.36631263 0,11.4072015 0,14.0093349 L0,14.034846 C0,16.7007571 2.04475421,18.6523571 4.58482155,18.6523571 L4.58482155,18.6523571 Z M12.73534,18.4737793 L15.3135084,18.4737793 L15.9485252,16.8665793 L19.3903164,16.8665793 L20.0253333,18.4737793 L22.6670033,18.4737793 L18.882303,9.48111263 L16.50734,9.48111263 L12.73534,18.4737793 Z M16.6724444,14.9404904 L17.675771,12.4148904 L18.6663972,14.9404904 L16.6724444,14.9404904 Z M27.4646329,18.4737793 L29.9284982,18.4737793 L29.9284982,15.7696015 L31.0207272,15.7696015 L32.8114746,18.4737793 L35.6436497,18.4737793 L33.5226935,15.3614237 C34.6276228,14.8894682 35.351542,13.9838237 35.351542,12.6062237 L35.351542,12.5807126 C35.351542,11.7005793 35.0848349,11.0245349 34.5641211,10.5015571 C33.9672053,9.90204596 33.0273804,9.54489041 31.6684443,9.54489041 L27.4646329,9.54489041 L27.4646329,18.4737793 Z M29.9284982,13.8307571 L29.9284982,11.6750682 L31.5541413,11.6750682 C32.3669628,11.6750682 32.8876766,12.0322237 32.8876766,12.7465349 L32.8876766,12.772046 C32.8876766,13.4225793 32.3923635,13.8307571 31.5668416,13.8307571 L29.9284982,13.8307571 Z M42.7019392,18.4737793 L45.1658045,18.4737793 L45.1658045,11.7133349 L47.8328752,11.7133349 L47.8328752,9.54489041 L40.0475688,9.54489041 L40.0475688,11.7133349 L42.7019392,11.7133349 L42.7019392,18.4737793 Z M57.2770812,18.6666667 C59.8544101,18.6666667 61.9437479,16.5773288 61.9437479,14 C61.9437479,11.4226712 59.8544101,9.33333333 57.2770812,9.33333333 C54.6997524,9.33333333 52.6104146,11.4226712 52.6104146,14 C52.6104146,16.5773288 54.6997524,18.6666667 57.2770812,18.6666667 Z"></path>
            </g>
        </g>
    </g>
</svg>