<?xml version="1.0" encoding="UTF-8"?>
<svg width="100px" height="12px" viewBox="0 0 100 12" version="1.1" xmlns="http://www.w3.org/2000/svg" xmlns:xlink="http://www.w3.org/1999/xlink">
    <title>Logos/Mono/Foursquare</title>
    <g id="Page-1" stroke="none" stroke-width="1" fill="none" fill-rule="evenodd">
        <g id="deckglsummit2022-medium" transform="translate(-596.000000, -4049.000000)" fill="#6F777C" fill-rule="nonzero">
            <g id="Group-3" transform="translate(567.000000, 3679.000000)">
                <g id="forwarderlogo_1152_Foursquare" transform="translate(29.000000, 370.000000)">
                    <path d="M0,0.261501211 L7.54364114,0.261501211 L7.54364114,1.49636804 L1.25241918,1.49636804 L1.25241918,4.95399516 L6.84461648,4.95399516 L6.84461648,6.18886199 L1.25241918,6.18886199 L1.25241918,11.1864407 L0,11.1864407 L0,0.261501211 Z M8.11159867,5.76755448 C8.11159867,2.52784504 10.2377987,0 13.4999138,0 C16.7474658,0 18.8445398,2.54237288 18.8445398,5.76755448 C18.8445398,9.05084746 16.6309617,11.4624697 13.4999138,11.4624697 C10.3543028,11.4624697 8.11159867,9.05084746 8.11159867,5.76755448 L8.11159867,5.76755448 Z M17.5047426,5.75302663 C17.5047426,3.19612591 15.9465001,1.24939467 13.4999138,1.24939467 C11.0533275,1.24939467 9.48052197,3.19612591 9.48052197,5.75302663 C9.48052197,8.38256659 11.1843946,10.2276029 13.4999138,10.2276029 C15.8008699,10.2276029 17.5047426,8.39709443 17.5047426,5.75302663 Z M20.3008412,7.1622276 L20.3008412,0.261501211 L21.5678234,0.261501211 L21.5678234,7.19128329 C21.5678234,9.23970944 22.6309234,10.2130751 24.5241152,10.2130751 C26.3590549,10.2130751 27.5532221,9.29782082 27.5532221,7.20581114 L27.5532221,0.261501211 L28.8202043,0.261501211 L28.8202043,7.17675545 C28.8202043,10.0387409 27.0580796,11.4624697 24.5241152,11.4624697 C22.0192768,11.4624697 20.3008412,10.0532688 20.3008412,7.1622276 Z M30.7570851,0.261501211 L35.3007454,0.261501211 C37.4851975,0.261501211 38.8104317,1.65617433 38.8104317,3.39951574 C38.8104317,4.61985472 38.1696591,5.62227603 36.9318029,6.13075061 C38.3298523,6.94430993 37.8492728,8.80387409 39.087129,11.1864407 L37.6599536,11.1864407 C36.9318029,10.0968523 37.033744,6.47941889 35.1696783,6.47941889 L32.0095043,6.47941889 L32.0095043,11.1864407 L30.7570851,11.1864407 L30.7570851,0.261501211 L30.7570851,0.261501211 Z M35.2716194,5.24455206 C36.5968536,5.24455206 37.5288865,4.47457627 37.5288865,3.34140436 C37.5288865,2.26634383 36.6842317,1.49636804 35.2716194,1.49636804 L32.0095043,1.49636804 L32.0095043,5.24455206 L35.2716194,5.24455206 Z M40.0628509,8.062954 L41.2861441,7.78692494 C41.5045893,9.29782082 42.5531263,10.1985472 44.2569989,10.1985472 C45.7861153,10.1985472 46.9948455,9.48668281 46.9948455,8.32445521 C46.9948455,7.49636804 46.3831989,6.79903148 43.9948646,6.08716707 C41.2861441,5.31719128 40.3832372,4.32929782 40.3832372,2.87651332 C40.3832372,1.00242131 41.8977906,0 44.0968057,0 C46.557955,0 47.6501811,1.24939467 48.0288194,2.96368039 L46.8055263,3.23970944 C46.499703,1.83050847 45.5385441,1.23486683 44.0531167,1.23486683 C42.6550674,1.23486683 41.6647824,1.75786925 41.6647824,2.76029056 C41.6647824,3.57384988 42.305555,4.19854722 44.5191331,4.89588378 C47.1550386,5.7094431 48.2909537,6.59564165 48.2909537,8.28087167 C48.2909537,10.3728814 46.528829,11.4624697 44.2861249,11.4624697 C41.9414797,11.4624697 40.3395482,10.2421308 40.0628509,8.062954 L40.0628509,8.062954 Z M49.2812386,5.76755448 C49.2812386,2.52784504 51.4074386,0 54.6695537,0 C57.9171058,0 60.0141798,2.54237288 60.0141798,5.76755448 C60.0141798,7.38014528 59.4753483,8.7748184 58.5724414,9.79176755 C59.0093318,10.2276029 59.4316592,10.6634383 59.8539866,11.1283293 L58.9510798,12 C58.5141894,11.535109 58.0627359,11.0702179 57.6112825,10.6198547 C56.7811907,11.157385 55.7909058,11.4624697 54.6695537,11.4624697 C51.5239427,11.4624697 49.2812386,9.05084746 49.2812386,5.76755448 L49.2812386,5.76755448 Z M56.6646866,9.69007264 C56.2423592,9.28329298 55.8200318,8.89104116 55.3831414,8.51331719 L56.2569222,7.62711864 C56.7229387,8.03389831 57.1889551,8.45520581 57.6258455,8.87651332 C58.2811811,8.09200969 58.6743825,7.01694915 58.6743825,5.75302663 C58.6743825,3.19612591 57.11614,1.24939467 54.6695537,1.24939467 C52.2229674,1.24939467 50.6501619,3.19612591 50.6501619,5.75302663 C50.6501619,8.38256659 52.3540345,10.2276029 54.6695537,10.2276029 C55.4122674,10.2276029 56.0821661,10.0387409 56.6646866,9.69007264 L56.6646866,9.69007264 Z M61.5287332,7.1622276 L61.5287332,0.261501211 L62.7957154,0.261501211 L62.7957154,7.19128329 C62.7957154,9.23970944 63.8588154,10.2130751 65.7520072,10.2130751 C67.5869469,10.2130751 68.7811141,9.29782082 68.7811141,7.20581114 L68.7811141,0.261501211 L70.0480963,0.261501211 L70.0480963,7.17675545 C70.0480963,10.0387409 68.2859716,11.4624697 65.7520072,11.4624697 C63.2471688,11.4624697 61.5287332,10.0532688 61.5287332,7.1622276 Z M74.7956388,0.261501211 L76.2810662,0.261501211 L80.5334662,11.1864407 L79.1936689,11.1864407 L77.9558128,8.00484262 L73.1063292,8.00484262 L71.883036,11.1864407 L70.5141127,11.1864407 L74.7956388,0.261501211 Z M77.4606703,6.78450363 L75.5529155,1.77239709 L73.6014716,6.78450363 L77.4606703,6.78450363 Z M81.5528772,0.261501211 L86.0965375,0.261501211 C88.2809895,0.261501211 89.6062238,1.65617433 89.6062238,3.39951574 C89.6062238,4.61985472 88.9654512,5.62227603 87.727595,6.13075061 C89.1256443,6.94430993 88.6450649,8.80387409 89.882921,11.1864407 L88.4557457,11.1864407 C87.727595,10.0968523 87.8295361,6.47941889 85.9654703,6.47941889 L82.8052963,6.47941889 L82.8052963,11.1864407 L81.5528772,11.1864407 L81.5528772,0.261501211 Z M86.0674114,5.24455206 C87.3926457,5.24455206 88.3246786,4.47457627 88.3246786,3.34140436 C88.3246786,2.26634383 87.4800238,1.49636804 86.0674114,1.49636804 L82.8052963,1.49636804 L82.8052963,5.24455206 L86.0674114,5.24455206 Z M91.3683484,0.261501211 L98.9993677,0.261501211 L98.9993677,1.49636804 L92.6207676,1.49636804 L92.6207676,4.95399516 L98.5187882,4.95399516 L98.5187882,6.18886199 L92.6207676,6.18886199 L92.6207676,9.937046 L99.1304348,9.937046 L99.1304348,11.1864407 L91.3683484,11.1864407 L91.3683484,0.261501211 L91.3683484,0.261501211 Z" id="Shape"></path>
                </g>
            </g>
        </g>
    </g>
</svg>