<?xml version="1.0" encoding="UTF-8"?>
<svg width="49px" height="16px" viewBox="0 0 49 16" version="1.1" xmlns="http://www.w3.org/2000/svg" xmlns:xlink="http://www.w3.org/1999/xlink">
    <title>Logos/Mono/google</title>
    <g id="Page-1" stroke="none" stroke-width="1" fill="none" fill-rule="evenodd">
        <g id="deckglsummit2022-medium" transform="translate(-597.000000, -5719.000000)" fill="#6A7479" fill-rule="nonzero">
            <g id="Logos/Mono/google" transform="translate(597.021739, 5719.043739)">
                <g id="Google_logo" transform="translate(0.000000, 0.000000)">
                    <path d="M11.9087826,5.60878261 L6.25669565,5.60878261 L6.25669565,7.286 L10.2652174,7.286 C10.0672174,9.63782609 8.11043478,10.6408696 6.26347826,10.6408696 C3.90043478,10.6408696 1.83834783,8.78165217 1.83834783,6.17565217 C1.83834783,3.63704348 3.804,1.682 6.26869565,1.682 C8.17017391,1.682 9.2906087,2.89408696 9.2906087,2.89408696 L10.4650435,1.678 C10.4650435,1.678 8.95773913,0 6.20869565,0 C2.70808696,0 0,2.95443478 0,6.14565217 C0,9.27269565 2.5473913,12.3218261 6.29791304,12.3218261 C9.59652174,12.3218261 12.0111304,10.0621739 12.0111304,6.7206087 C12.0111304,6.01573913 11.9087826,5.60826087 11.9087826,5.60826087 L11.9087826,5.60878261 Z" id="g_1_"></path>
                    <path d="M16.5387826,4.39417391 C14.2195652,4.39417391 12.5574783,6.2073913 12.5574783,8.322 C12.5574783,10.467913 14.1696522,12.3147826 16.566,12.3147826 C18.7353913,12.3147826 20.5126957,10.6566957 20.5126957,8.36817391 C20.5126957,5.74504348 18.4453043,4.39417391 16.5387826,4.39417391 L16.5387826,4.39417391 Z M16.5618261,5.94973913 C17.7022609,5.94973913 18.7830435,6.87182609 18.7830435,8.35756522 C18.7830435,9.81182609 17.7068696,10.7601739 16.5566087,10.7601739 C15.2926087,10.7601739 14.2954783,9.74782609 14.2954783,8.346 C14.2954783,6.97426087 15.2802609,5.94973913 16.5618261,5.94973913 L16.5618261,5.94973913 Z" id="o_1_"></path>
                    <path d="M25.1974783,4.39417391 C22.8782609,4.39417391 21.2161739,6.2073913 21.2161739,8.322 C21.2161739,10.467913 22.8283478,12.3147826 25.2246957,12.3147826 C27.394087,12.3147826 29.1713043,10.6566957 29.1713043,8.36817391 C29.1713913,5.74504348 27.104,4.39417391 25.1974783,4.39417391 L25.1974783,4.39417391 Z M25.2205217,5.94973913 C26.3611304,5.94973913 27.4418261,6.87182609 27.4418261,8.35756522 C27.4418261,9.81182609 26.3656522,10.7601739 25.2153043,10.7601739 C23.9513913,10.7601739 22.9542609,9.74782609 22.9542609,8.346 C22.9542609,6.97426087 23.9389565,5.94973913 25.2205217,5.94973913 L25.2205217,5.94973913 Z" id="o"></path>
                    <path d="M33.6903478,4.39826087 C31.5615652,4.39826087 29.8882609,6.26269565 29.8882609,8.3553913 C29.8882609,10.7391304 31.8281739,12.3198261 33.6536522,12.3198261 C34.7823478,12.3198261 35.3825217,11.8718261 35.8256522,11.3575652 L35.8256522,12.1384348 C35.8256522,13.5046957 34.996087,14.3230435 33.743913,14.3230435 C32.5341739,14.3230435 31.9274783,13.4235652 31.7166087,12.9131304 L30.1946087,13.5494783 C30.7345217,14.6912174 31.8214783,15.8818261 33.7566087,15.8818261 C35.8731304,15.8818261 37.4862609,14.5486957 37.4862609,11.7526957 L37.4862609,4.63643478 L35.8258261,4.63643478 L35.8258261,5.30730435 C35.3152174,4.75713043 34.6169565,4.39826087 33.6903478,4.39826087 L33.6903478,4.39826087 Z M33.8444348,5.95078261 C34.888087,5.95078261 35.959913,6.842 35.959913,8.36382609 C35.959913,9.91078261 34.8904348,10.7633043 33.8213913,10.7633043 C32.6864348,10.7633043 31.6305217,9.84182609 31.6305217,8.37852174 C31.6305217,6.85808696 32.7272174,5.95078261 33.8444348,5.95078261 L33.8444348,5.95078261 Z" id="g"></path>
                    <path d="M44.8689565,4.38886957 C42.8608696,4.38886957 41.1749565,5.98652174 41.1749565,8.34391304 C41.1749565,10.8384348 43.0541739,12.3178261 45.061913,12.3178261 C46.7375652,12.3178261 47.765913,11.4011304 48.3795652,10.5798261 L47.0105217,9.66886957 C46.6553043,10.2201739 46.0613913,10.7590435 45.0702609,10.7590435 C43.9567826,10.7590435 43.4449565,10.1493913 43.1278261,9.55878261 L48.438,7.3553913 L48.1623478,6.70965217 C47.6493913,5.44513043 46.4526087,4.38904348 44.8691304,4.38904348 L44.8689565,4.38886957 Z M44.938087,5.912 C45.6617391,5.912 46.1824348,6.29669565 46.4036522,6.75791304 L42.8574783,8.24017391 C42.7045217,7.0926087 43.7916522,5.912 44.938087,5.912 L44.938087,5.912 Z" id="e"></path>
                    <polygon id="l" points="38.6433043 12.0826957 40.3875652 12.0826957 40.3875652 0.409565217 38.6433043 0.409565217"></polygon>
                </g>
            </g>
        </g>
    </g>
</svg>