<?xml version="1.0" encoding="UTF-8"?>
<svg width="71px" height="16px" viewBox="0 0 71 16" version="1.1" xmlns="http://www.w3.org/2000/svg" xmlns:xlink="http://www.w3.org/1999/xlink">
    <title>Logos/Mono/mapbox</title>
    <g id="Page-1" stroke="none" stroke-width="1" fill="none" fill-rule="evenodd">
        <g id="deckglsummit2022-medium" transform="translate(-222.000000, -5718.000000)" fill="#6F777C" fill-rule="nonzero">
            <g id="mapbox-logo-black" transform="translate(222.000000, 5718.000000)">
                <g id="Group" transform="translate(19.685393, 1.707865)">
                    <path d="M33.3123596,2.67865169 C32.4224719,2.67865169 31.5685393,3.04719101 30.9483146,3.69438202 L30.9483146,0.269662921 C30.9483146,0.161797753 30.858427,0.0719101124 30.7505618,0.0719101124 L30.7505618,0.0719101124 L29.5460674,0.0719101124 C29.4382022,0.0719101124 29.3483146,0.161797753 29.3483146,0.269662921 L29.3483146,9.52808989 C29.3483146,9.63595506 29.4382022,9.7258427 29.5460674,9.7258427 L30.7505618,9.7258427 C30.858427,9.7258427 30.9483146,9.63595506 30.9483146,9.52808989 L30.9483146,9.52808989 L30.9483146,8.88988764 C31.5685393,9.53707865 32.4134831,9.90561798 33.3123596,9.90561798 C35.1910112,9.90561798 36.7101124,8.28764045 36.7101124,6.29213483 C36.7101124,4.29662921 35.1910112,2.67865169 33.3123596,2.67865169 Z M33.0337079,8.45842697 C31.8921348,8.45842697 30.9662921,7.50561798 30.9573034,6.31910112 L30.9573034,6.26516854 C30.9752809,5.07865169 31.8921348,4.1258427 33.0337079,4.1258427 C34.1842697,4.1258427 35.1101124,5.09662921 35.1101124,6.29213483 C35.1101124,7.48764045 34.1752809,8.45842697 33.0337079,8.45842697 L33.0337079,8.45842697 Z" id="Shape"></path>
                    <path d="M41.141573,2.67865169 C39.1101124,2.67865169 37.4651685,4.29662921 37.4651685,6.29213483 C37.4651685,8.28764045 39.1101124,9.90561798 41.141573,9.90561798 C43.1730337,9.90561798 44.8179775,8.28764045 44.8179775,6.29213483 C44.8179775,4.29662921 43.1730337,2.67865169 41.141573,2.67865169 Z M41.1325843,8.45842697 C39.9820225,8.45842697 39.0561798,7.48764045 39.0561798,6.29213483 C39.0561798,5.09662921 39.9910112,4.1258427 41.1325843,4.1258427 C42.2741573,4.1258427 43.2089888,5.09662921 43.2089888,6.29213483 C43.2089888,7.48764045 42.2741573,8.45842697 41.1325843,8.45842697 L41.1325843,8.45842697 Z" id="Shape"></path>
                    <path d="M18.6606742,2.85842697 L17.4561798,2.85842697 C17.3483146,2.85842697 17.258427,2.94831461 17.258427,3.05617978 C17.258427,3.05617978 17.258427,3.05617978 17.258427,3.05617978 L17.258427,3.69438202 C16.6382022,3.04719101 15.7932584,2.67865169 14.894382,2.67865169 C13.0157303,2.67865169 11.4966292,4.29662921 11.4966292,6.29213483 C11.4966292,8.28764045 13.0157303,9.90561798 14.894382,9.90561798 C15.7842697,9.90561798 16.6382022,9.53707865 17.258427,8.88988764 L17.258427,9.52808989 C17.258427,9.63595506 17.3483146,9.7258427 17.4561798,9.7258427 L17.4561798,9.7258427 L18.6606742,9.7258427 C18.7685393,9.7258427 18.858427,9.63595506 18.858427,9.52808989 L18.858427,9.52808989 L18.858427,3.05617978 C18.858427,2.94831461 18.7685393,2.85842697 18.6606742,2.85842697 Z M15.1730337,8.45842697 C14.0224719,8.45842697 13.0966292,7.48764045 13.0966292,6.29213483 C13.0966292,5.09662921 14.0314607,4.1258427 15.1730337,4.1258427 C16.3146067,4.1258427 17.2404494,5.07865169 17.2494382,6.26516854 L17.2494382,6.31910112 C17.2404494,7.50561798 16.3146067,8.45842697 15.1730337,8.45842697 L15.1730337,8.45842697 Z" id="Shape"></path>
                    <path d="M24.6741573,2.67865169 C23.7842697,2.67865169 22.9303371,3.04719101 22.3101124,3.69438202 L22.3101124,3.05617978 C22.3101124,2.94831461 22.2202247,2.85842697 22.1123596,2.85842697 L22.1123596,2.85842697 L20.9078652,2.85842697 C20.8,2.85842697 20.7101124,2.94831461 20.7101124,3.05617978 C20.7101124,3.05617978 20.7101124,3.05617978 20.7101124,3.05617978 L20.7101124,12.3146067 C20.7101124,12.4224719 20.8,12.5123596 20.9078652,12.5123596 L20.9078652,12.5123596 L22.1123596,12.5123596 C22.2202247,12.5123596 22.3101124,12.4224719 22.3101124,12.3146067 L22.3101124,12.3146067 L22.3101124,8.88988764 C22.9303371,9.53707865 23.7752809,9.90561798 24.6741573,9.90561798 C26.552809,9.90561798 28.0719101,8.28764045 28.0719101,6.29213483 C28.0719101,4.29662921 26.552809,2.67865169 24.6741573,2.67865169 Z M24.3955056,8.45842697 C23.2539326,8.45842697 22.3280899,7.50561798 22.3191011,6.31910112 L22.3191011,6.26516854 C22.3370787,5.07865169 23.2539326,4.1258427 24.3955056,4.1258427 C25.5460674,4.1258427 26.4719101,5.09662921 26.4719101,6.29213483 C26.4719101,7.48764045 25.5460674,8.45842697 24.3955056,8.45842697 L24.3955056,8.45842697 Z" id="Shape"></path>
                    <path d="M7.89213483,2.67865169 C6.99325843,2.68764045 6.1752809,3.20898876 5.78876404,4.02696629 C5.34831461,3.19101124 4.46741573,2.66966292 3.52359551,2.67865169 C2.78651685,2.67865169 2.09438202,3.03820225 1.66292135,3.63146067 L1.66292135,3.05617978 C1.66292135,2.94831461 1.57303371,2.85842697 1.46516854,2.85842697 L1.46516854,2.85842697 L0.260674157,2.85842697 C0.152808989,2.85842697 0.0629213483,2.94831461 0.0629213483,3.05617978 C0.0629213483,3.05617978 0.0629213483,3.05617978 0.0629213483,3.05617978 L0.0629213483,9.52808989 C0.0629213483,9.63595506 0.152808989,9.7258427 0.260674157,9.7258427 L0.260674157,9.7258427 L1.46516854,9.7258427 C1.57303371,9.7258427 1.66292135,9.63595506 1.66292135,9.52808989 L1.66292135,9.52808989 L1.66292135,5.65393258 C1.70786517,4.79101124 2.31011236,4.0988764 3.04719101,4.0988764 C3.81123596,4.0988764 4.4494382,4.73707865 4.4494382,5.57303371 L4.4494382,9.52808989 C4.4494382,9.63595506 4.53932584,9.7258427 4.64719101,9.7258427 L5.86067416,9.7258427 C5.96853933,9.7258427 6.05842697,9.63595506 6.05842697,9.52808989 C6.05842697,9.52808989 6.05842697,9.52808989 6.05842697,9.52808989 L6.0494382,5.5011236 C6.15730337,4.71011236 6.72359551,4.0988764 7.41573034,4.0988764 C8.17977528,4.0988764 8.81797753,4.73707865 8.81797753,5.57303371 L8.81797753,9.52808989 C8.81797753,9.63595506 8.90786517,9.7258427 9.01573034,9.7258427 L10.2292135,9.7258427 C10.3370787,9.7258427 10.4269663,9.63595506 10.4269663,9.52808989 C10.4269663,9.52808989 10.4269663,9.52808989 10.4269663,9.52808989 L10.4179775,5.07865169 C10.4179775,3.74831461 9.28539326,2.67865169 7.89213483,2.67865169 Z" id="Path"></path>
                    <path d="M51.2988764,9.44719101 L49.2134831,6.2741573 L51.2808989,3.12808989 C51.3348315,3.04719101 51.3078652,2.93033708 51.2269663,2.87640449 C51.2,2.85842697 51.1640449,2.8494382 51.1280899,2.8494382 L49.7348315,2.8494382 C49.6269663,2.8494382 49.5280899,2.90337079 49.4741573,2.99325843 L48.2606742,5.03370787 L47.047191,3.00224719 C46.9932584,2.91235955 46.894382,2.85842697 46.7865169,2.85842697 L45.3932584,2.85842697 C45.294382,2.85842697 45.2134831,2.93932584 45.2134831,3.03820225 C45.2134831,3.0741573 45.2224719,3.11011236 45.2404494,3.13707865 L47.3078652,6.28314607 L45.2224719,9.45617978 C45.1685393,9.53707865 45.1955056,9.65393258 45.2764045,9.70786517 C45.3033708,9.7258427 45.3393258,9.73483146 45.3752809,9.73483146 L46.7685393,9.73483146 C46.8764045,9.73483146 46.9752809,9.68089888 47.0292135,9.59101124 L48.2696629,7.52359551 L49.5101124,9.59101124 C49.5640449,9.68089888 49.6629213,9.73483146 49.7707865,9.73483146 L51.1460674,9.73483146 C51.2449438,9.73483146 51.3258427,9.65393258 51.3258427,9.55505618 C51.3258427,9.51910112 51.3168539,9.48314607 51.2988764,9.44719101 Z" id="Path"></path>
                </g>
                <g id="Group">
                    <path d="M7.99101124,0.00898876404 C3.57752809,0.00898876404 0,3.58651685 0,8 C0,12.4134831 3.57752809,15.9910112 7.99101124,15.9910112 C12.4044944,15.9910112 15.9820225,12.4134831 15.9820225,8 C15.9820225,3.58651685 12.4044944,0.00898876404 7.99101124,0.00898876404 Z M11.7842697,9.95955056 C9.05168539,12.6921348 4.17078652,11.8202247 4.17078652,11.8202247 C4.17078652,11.8202247 3.28988764,6.94831461 6.03146067,4.20674157 C7.5505618,2.68764045 10.0674157,2.7505618 11.658427,4.33258427 C13.2494382,5.91460674 13.3033708,8.44044944 11.7842697,9.95955056 L11.7842697,9.95955056 Z" id="Shape"></path>
                    <polygon id="Path" points="8.90786517 4.69213483 8.1258427 6.3011236 6.51685393 7.08314607 8.1258427 7.86516854 8.90786517 9.4741573 9.68988764 7.86516854 11.2988764 7.08314607 9.68988764 6.3011236"></polygon>
                </g>
            </g>
        </g>
    </g>
</svg>