<?xml version="1.0" encoding="UTF-8"?>
<svg width="76px" height="16px" viewBox="0 0 76 16" version="1.1" xmlns="http://www.w3.org/2000/svg" xmlns:xlink="http://www.w3.org/1999/xlink">
    <title>Microsoft_logo_(2012)</title>
    <g id="Page-1" stroke="none" stroke-width="1" fill="none" fill-rule="evenodd">
        <g id="deckglsummit2022-medium" transform="translate(-218.000000, -7039.000000)" fill="#6A7479" fill-rule="nonzero">
            <g id="Microsoft_logo_(2012)" transform="translate(218.000000, 7039.000000)">
                <path d="M31.2,3.2 L31.2,12.8 L29.5333333,12.8 L29.5333333,5.26666667 L29.5111111,5.26666667 L26.5333333,12.8 L25.4222222,12.8 L22.3777778,5.26666667 L22.3555556,5.26666667 L22.3555556,12.8 L20.8222222,12.8 L20.8222222,3.2 L23.2222222,3.2 L25.9777778,10.3111111 L26.0222222,10.3111111 L28.9333333,3.2 L31.2,3.2 Z M32.5777778,3.93333333 C32.5777778,3.66666667 32.6666667,3.44444444 32.8666667,3.26666667 C33.0666667,3.08888889 33.2888889,3 33.5555556,3 C33.8444444,3 34.0888889,3.08888889 34.2666667,3.26666667 C34.4444444,3.44444444 34.5555556,3.66666667 34.5555556,3.93333333 C34.5555556,4.2 34.4666667,4.42222222 34.2666667,4.6 C34.0666667,4.77777778 33.8444444,4.86666667 33.5555556,4.86666667 C33.2666667,4.86666667 33.0444444,4.77777778 32.8666667,4.6 C32.6888889,4.4 32.5777778,4.17777778 32.5777778,3.93333333 Z M34.3777778,5.91111111 L34.3777778,12.8 L32.7555556,12.8 L32.7555556,5.91111111 L34.3777778,5.91111111 Z M39.2888889,11.6222222 C39.5333333,11.6222222 39.8,11.5777778 40.0888889,11.4444444 C40.3777778,11.3333333 40.6444444,11.1777778 40.8888889,11 L40.8888889,12.5111111 C40.6222222,12.6666667 40.3333333,12.7777778 40,12.8444444 C39.6666667,12.9111111 39.3111111,12.9555556 38.9111111,12.9555556 C37.8888889,12.9555556 37.0666667,12.6444444 36.4444444,12 C35.8,11.3555556 35.4888889,10.5333333 35.4888889,9.55555556 C35.4888889,8.44444444 35.8222222,7.53333333 36.4666667,6.82222222 C37.1111111,6.11111111 38.0222222,5.75555556 39.2222222,5.75555556 C39.5333333,5.75555556 39.8444444,5.8 40.1333333,5.86666667 C40.4444444,5.93333333 40.6888889,6.04444444 40.8666667,6.13333333 L40.8666667,7.68888889 C40.6222222,7.51111111 40.3555556,7.35555556 40.1111111,7.26666667 C39.8444444,7.17777778 39.5777778,7.11111111 39.3111111,7.11111111 C38.6666667,7.11111111 38.1555556,7.31111111 37.7555556,7.73333333 C37.3555556,8.15555556 37.1777778,8.71111111 37.1777778,9.42222222 C37.1777778,10.1111111 37.3777778,10.6666667 37.7555556,11.0444444 C38.1333333,11.4222222 38.6444444,11.6222222 39.2888889,11.6222222 Z M45.4888889,5.8 C45.6222222,5.8 45.7333333,5.8 45.8444444,5.82222222 C45.9555556,5.84444444 46.0444444,5.86666667 46.1111111,5.88888889 L46.1111111,7.53333333 C46.0222222,7.46666667 45.9111111,7.4 45.7333333,7.35555556 C45.5555556,7.31111111 45.3777778,7.26666667 45.1333333,7.26666667 C44.7333333,7.26666667 44.4,7.44444444 44.1333333,7.77777778 C43.8666667,8.11111111 43.7111111,8.62222222 43.7111111,9.33333333 L43.7111111,12.8 L42.0888889,12.8 L42.0888889,5.91111111 L43.7111111,5.91111111 L43.7111111,7 L43.7333333,7 C43.8888889,6.62222222 44.1111111,6.33333333 44.4,6.11111111 C44.7111111,5.91111111 45.0666667,5.8 45.4888889,5.8 Z M46.2,9.46666667 C46.2,8.33333333 46.5333333,7.42222222 47.1555556,6.75555556 C47.8,6.08888889 48.6888889,5.75555556 49.8222222,5.75555556 C50.8888889,5.75555556 51.7333333,6.06666667 52.3333333,6.71111111 C52.9333333,7.35555556 53.2444444,8.22222222 53.2444444,9.31111111 C53.2444444,10.4222222 52.9111111,11.3111111 52.2888889,11.9777778 C51.6444444,12.6444444 50.7777778,12.9777778 49.6666667,12.9777778 C48.6,12.9777778 47.7555556,12.6666667 47.1333333,12.0444444 C46.5111111,11.4 46.2,10.5333333 46.2,9.46666667 Z M47.8888889,9.4 C47.8888889,10.1111111 48.0444444,10.6666667 48.3777778,11.0444444 C48.7111111,11.4222222 49.1777778,11.6222222 49.7777778,11.6222222 C50.3555556,11.6222222 50.8222222,11.4444444 51.1333333,11.0444444 C51.4444444,10.6666667 51.6,10.1111111 51.6,9.35555556 C51.6,8.62222222 51.4444444,8.06666667 51.1333333,7.66666667 C50.8222222,7.28888889 50.3555556,7.08888889 49.8,7.08888889 C49.2,7.08888889 48.7555556,7.28888889 48.4222222,7.68888889 C48.0444444,8.11111111 47.8888889,8.66666667 47.8888889,9.4 Z M55.6666667,7.73333333 C55.6666667,7.95555556 55.7333333,8.15555556 55.8888889,8.28888889 C56.0444444,8.42222222 56.3555556,8.57777778 56.8666667,8.77777778 C57.5111111,9.04444444 57.9777778,9.33333333 58.2222222,9.64444444 C58.4888889,9.97777778 58.6222222,10.3555556 58.6222222,10.8222222 C58.6222222,11.4666667 58.3777778,11.9777778 57.8666667,12.3777778 C57.3777778,12.7777778 56.6888889,12.9555556 55.8444444,12.9555556 C55.5555556,12.9555556 55.2444444,12.9111111 54.8888889,12.8444444 C54.5333333,12.7777778 54.2444444,12.6888889 54,12.5777778 L54,10.9777778 C54.2888889,11.1777778 54.6222222,11.3555556 54.9555556,11.4666667 C55.2888889,11.5777778 55.6,11.6444444 55.8888889,11.6444444 C56.2444444,11.6444444 56.5333333,11.6 56.6888889,11.4888889 C56.8666667,11.3777778 56.9555556,11.2222222 56.9555556,10.9777778 C56.9555556,10.7555556 56.8666667,10.5777778 56.6888889,10.4 C56.5111111,10.2444444 56.1555556,10.0666667 55.6666667,9.86666667 C55.0666667,9.62222222 54.6444444,9.33333333 54.4,9.02222222 C54.1555556,8.71111111 54.0222222,8.31111111 54.0222222,7.82222222 C54.0222222,7.2 54.2666667,6.68888889 54.7555556,6.28888889 C55.2444444,5.88888889 55.8888889,5.68888889 56.6666667,5.68888889 C56.9111111,5.68888889 57.1777778,5.71111111 57.4666667,5.77777778 C57.7555556,5.84444444 58.0222222,5.91111111 58.2222222,5.97777778 L58.2222222,7.55555556 C58,7.42222222 57.7555556,7.28888889 57.4666667,7.17777778 C57.1777778,7.06666667 56.8888889,7.02222222 56.6222222,7.02222222 C56.3111111,7.02222222 56.0666667,7.08888889 55.9111111,7.2 C55.7555556,7.35555556 55.6666667,7.51111111 55.6666667,7.73333333 Z M59.3111111,9.46666667 C59.3111111,8.33333333 59.6444444,7.42222222 60.2666667,6.75555556 C60.9111111,6.08888889 61.8,5.75555556 62.9333333,5.75555556 C64,5.75555556 64.8444444,6.06666667 65.4444444,6.71111111 C66.0444444,7.35555556 66.3555556,8.22222222 66.3555556,9.31111111 C66.3555556,10.4222222 66.0222222,11.3111111 65.4,11.9777778 C64.7555556,12.6444444 63.8888889,12.9777778 62.7777778,12.9777778 C61.7111111,12.9777778 60.8666667,12.6666667 60.2444444,12.0444444 C59.6444444,11.4 59.3111111,10.5333333 59.3111111,9.46666667 Z M61,9.4 C61,10.1111111 61.1555556,10.6666667 61.4888889,11.0444444 C61.8222222,11.4222222 62.2888889,11.6222222 62.8888889,11.6222222 C63.4666667,11.6222222 63.9333333,11.4444444 64.2444444,11.0444444 C64.5555556,10.6666667 64.7111111,10.1111111 64.7111111,9.35555556 C64.7111111,8.62222222 64.5555556,8.06666667 64.2444444,7.66666667 C63.9333333,7.28888889 63.4666667,7.08888889 62.9111111,7.08888889 C62.3111111,7.08888889 61.8666667,7.28888889 61.5333333,7.68888889 C61.1777778,8.11111111 61,8.66666667 61,9.4 Z M71.7555556,7.24444444 L69.3333333,7.24444444 L69.3333333,12.8 L67.6888889,12.8 L67.6888889,7.24444444 L66.5333333,7.24444444 L66.5333333,5.91111111 L67.6888889,5.91111111 L67.6888889,4.95555556 C67.6888889,4.24444444 67.9333333,3.64444444 68.4,3.17777778 C68.8666667,2.71111111 69.4666667,2.48888889 70.2,2.48888889 C70.4,2.48888889 70.5777778,2.51111111 70.7333333,2.51111111 C70.8888889,2.51111111 71.0222222,2.55555556 71.1333333,2.6 L71.1333333,4 C71.0888889,3.97777778 70.9777778,3.93333333 70.8444444,3.88888889 C70.7111111,3.84444444 70.5555556,3.82222222 70.3777778,3.82222222 C70.0444444,3.82222222 69.7777778,3.93333333 69.6,4.13333333 C69.4222222,4.33333333 69.3333333,4.66666667 69.3333333,5.06666667 L69.3333333,5.88888889 L71.7555556,5.88888889 L71.7555556,4.33333333 L73.3777778,3.84444444 L73.3777778,5.88888889 L75.0222222,5.88888889 L75.0222222,7.22222222 L73.3777778,7.22222222 L73.3777778,10.4444444 C73.3777778,10.8666667 73.4666667,11.1555556 73.6,11.3333333 C73.7555556,11.5111111 74,11.6 74.3333333,11.6 C74.4222222,11.6 74.5333333,11.5777778 74.6666667,11.5333333 C74.8,11.4888889 74.9111111,11.4444444 75,11.3777778 L75,12.7111111 C74.8888889,12.7777778 74.7333333,12.8222222 74.4888889,12.8666667 C74.2444444,12.9111111 74.0222222,12.9333333 73.7777778,12.9333333 C73.0888889,12.9333333 72.5777778,12.7555556 72.2444444,12.4 C71.9111111,12.0444444 71.7333333,11.4888889 71.7333333,10.7555556 L71.7555556,7.24444444 L71.7555556,7.24444444 Z" id="Shape"></path>
                <g id="Group">
                    <rect id="Rectangle" x="0" y="0" width="7.6" height="7.6"></rect>
                    <rect id="Rectangle" x="8.4" y="0" width="7.6" height="7.6"></rect>
                    <rect id="Rectangle" x="0" y="8.4" width="7.6" height="7.6"></rect>
                    <rect id="Rectangle" x="8.4" y="8.4" width="7.6" height="7.6"></rect>
                </g>
            </g>
        </g>
    </g>
</svg>