<?xml version="1.0" encoding="UTF-8"?>
<svg width="82px" height="16px" viewBox="0 0 82 16" version="1.1" xmlns="http://www.w3.org/2000/svg" xmlns:xlink="http://www.w3.org/1999/xlink">
    <title>nvidia</title>
    <g id="Page-1" stroke="none" stroke-width="1" fill="none" fill-rule="evenodd">
        <g id="deckglsummit2022-medium" transform="translate(-596.000000, -5125.000000)" fill="#6D777C" fill-rule="nonzero">
            <g id="nvidia" transform="translate(596.000000, 5125.700002)">
                <path d="M80.3088472,12.0283807 L80.3088472,11.803005 L80.4507504,11.803005 C80.5258756,11.803005 80.6343898,11.8113523 80.6343898,11.903172 C80.6343898,11.9949917 80.575959,12.0283807 80.4841393,12.0283807 L80.3088472,12.0283807 M80.3088472,12.1869783 L80.4090141,12.1869783 L80.6343898,12.5792989 L80.8764599,12.5792989 L80.6260425,12.1702838 C80.7512512,12.1786311 80.8514181,12.0868114 80.8597654,11.9616027 L80.8597654,11.9282137 C80.8597654,11.7111853 80.709515,11.6444074 80.4590976,11.6444074 L80.1001661,11.6444074 L80.1001661,12.5792989 L80.3088472,12.5792989 L80.3088472,12.1869783 M81.3606001,12.1118531 C81.3606001,11.5609349 80.9348906,11.2437396 80.4590976,11.2437396 C79.9833046,11.2437396 79.5575951,11.5609349 79.5575951,12.1118531 C79.5575951,12.6627713 79.9833046,12.9799666 80.4590976,12.9799666 C80.9348906,12.9799666 81.3606001,12.6627713 81.3606001,12.1118531 M81.0934882,12.1118531 C81.1101827,12.4624374 80.8347236,12.7629383 80.4841393,12.7796327 L80.4590976,12.7796327 C80.0918188,12.7963272 79.7829707,12.5041737 79.7662762,12.1368949 C79.7495818,11.7696161 80.0417353,11.460768 80.4090141,11.4440735 C80.7762929,11.427379 81.085141,11.7195326 81.1018355,12.0868114 C81.0934882,12.0951586 81.0934882,12.1035059 81.0934882,12.1118531 L81.0934882,12.1118531 Z" id="path4"></path>
                <path d="M48.2637724,2.83806341 L48.2637724,12.687813 L51.0434051,12.687813 L51.0434051,2.83806341 L48.2637724,2.83806341 Z M26.3939897,2.82136892 L26.3939897,12.6794658 L29.1986641,12.6794658 L29.1986641,5.02504168 L31.3856424,5.03338893 C32.1035055,5.03338893 32.6043402,5.20868108 32.9465773,5.57595987 C33.3889813,6.04340561 33.5642734,6.80300493 33.5642734,8.18030041 L33.5642734,12.6794658 L36.2854754,12.6794658 L36.2854754,7.23706169 C36.2854754,3.34724537 33.8063435,2.82136892 31.3856424,2.82136892 L26.3939897,2.82136892 Z M52.7462432,2.83806341 L52.7462432,12.687813 L57.2537556,12.687813 C59.6577623,12.687813 60.4424033,12.2871453 61.2854751,11.39399 C61.8864768,10.7679466 62.2704501,9.38230374 62.2704501,7.87145233 C62.2704501,6.48580961 61.9449075,5.2504173 61.3689476,4.48247073 C60.3505836,3.10517526 58.864774,2.83806341 56.6444067,2.83806341 L52.7462432,2.83806341 Z M55.5008341,4.97495821 L56.6944902,4.97495821 C58.4307172,4.97495821 59.5492481,5.75125202 59.5492481,7.77128539 C59.5492481,9.79131876 58.4307172,10.57596 56.6944902,10.57596 L55.5008341,10.57596 L55.5008341,4.97495821 Z M44.2570947,2.83806341 L41.9365605,10.6427379 L39.7161932,2.83806341 L36.7111849,2.83806341 L39.8831381,12.687813 L43.8898159,12.687813 L47.0951581,2.83806341 L44.2570947,2.83806341 Z M63.5726203,12.687813 L66.352253,12.687813 L66.352253,2.83806341 L63.5726203,2.83806341 L63.5726203,12.687813 Z M71.3689475,2.83806341 L67.4874784,12.6794658 L70.2253748,12.6794658 L70.843071,10.9348915 L75.4340559,10.9348915 L76.0183631,12.6711186 L78.9983297,12.6711186 L75.0834716,2.83806341 L71.3689475,2.83806341 Z M73.1719524,4.63272115 L74.858096,9.24040056 L71.4357254,9.24040056 L73.1719524,4.63272115 Z" id="path6"></path>
                <path d="M8.45575951,4.47412349 L8.45575951,3.12186975 C8.58931543,3.1135225 8.72287136,3.10517526 8.85642728,3.10517526 C12.5626042,2.98831382 14.9916526,6.29382297 14.9916526,6.29382297 C14.9916526,6.29382297 12.3706176,9.93322193 9.55759589,9.93322193 C9.18196985,9.93322193 8.81469105,9.87479121 8.46410675,9.75792977 L8.46410675,5.65108508 C9.90818019,5.82637723 10.2003338,6.46076787 11.0601,7.90484131 L12.9883137,6.28547572 C12.9883137,6.28547572 11.5776293,4.44073451 9.20701158,4.44073451 C8.95659422,4.43238726 8.70617686,4.44908175 8.45575951,4.47412349 M8.45575951,0 L8.45575951,2.02003337 L8.85642728,1.99499163 C14.0066776,1.81969948 17.3706175,6.21869776 17.3706175,6.21869776 C17.3706175,6.21869776 13.5141902,10.9098498 9.49916517,10.9098498 C9.14858087,10.9098498 8.80634381,10.8764608 8.46410675,10.8180301 L8.46410675,12.0701169 C8.74791309,12.1035059 9.04006668,12.1285476 9.32387302,12.1285476 C13.0634389,12.1285476 15.7679464,10.2170284 18.3889814,7.96327203 C18.8230382,8.31385633 20.6010014,9.15692811 20.9682802,9.52420691 C18.4808011,11.6110184 12.6794656,13.2888147 9.39065098,13.2888147 C9.07345566,13.2888147 8.77295483,13.2721202 8.472454,13.2387312 L8.472454,15 L22.6794655,15 L22.6794655,0 L8.45575951,0 Z M8.45575951,9.75792977 L8.45575951,10.8263773 C4.99999994,10.2086812 4.04006673,6.61101829 4.04006673,6.61101829 C4.04006673,6.61101829 5.70116855,4.77462432 8.45575951,4.47412349 L8.45575951,5.64273783 L8.44741226,5.64273783 C7.00333882,5.46744568 5.86811346,6.81969942 5.86811346,6.81969942 C5.86811346,6.81969942 6.51085135,9.09849739 8.45575951,9.75792977 M2.3205342,6.46076787 C2.3205342,6.46076787 4.3656093,3.43906507 8.46410675,3.12186975 L8.46410675,2.02003337 C3.9232053,2.38731216 0,6.22704501 0,6.22704501 C0,6.22704501 2.22036725,12.6544241 8.45575951,13.2387312 L8.45575951,12.0701169 C3.88146907,11.5025042 2.3205342,6.46076787 2.3205342,6.46076787 Z" id="path8"></path>
            </g>
        </g>
    </g>
</svg>