<?xml version="1.0" encoding="UTF-8"?>
<svg width="70px" height="15px" viewBox="0 0 70 15" version="1.1" xmlns="http://www.w3.org/2000/svg" xmlns:xlink="http://www.w3.org/1999/xlink">
    <title>ubilabs</title>
    <g id="Page-1" stroke="none" stroke-width="1" fill="none" fill-rule="evenodd">
        <g id="deckglsummit2022-medium" transform="translate(-223.000000, -4532.000000)" fill="#6D777C" fill-rule="nonzero">
            <g id="ubilabs" transform="translate(223.000000, 4532.000000)">
                <path d="M10.6412628,4.35873723 C10.0462057,4.35873723 9.45114854,4.35873723 8.86019527,4.35873723 C8.77811842,4.35873723 8.71245695,4.39977565 8.67141853,4.46543713 C8.29386504,5.13846724 7.91631156,5.81149736 7.53875808,6.48452748 C7.50592735,6.54198127 7.47309661,6.59533122 7.44026587,6.65688885 C7.43616203,6.65688885 7.43616203,6.66099269 7.43616203,6.66099269 C7.42795434,6.67740806 7.41974666,6.69382343 7.41153898,6.7102388 C6.38968227,8.52413704 5.37192941,10.3380353 4.35417655,12.1560374 C4.12436139,12.5541101 3.84940396,12.7428868 3.34873522,12.7428868 C2.70032815,12.7428868 2.30225546,12.3653333 2.30225546,11.6758878 C2.30225546,9.29155553 2.30225546,6.90722322 2.30225546,4.52699476 C2.30225546,4.44491791 2.22017862,4.35873723 2.13399793,4.35873723 C1.4691755,4.35873723 0.808456909,4.35873723 0.147738318,4.35873723 C0.0779730014,4.35873723 0,4.44081407 0,4.52699476 C0,6.91543091 0,9.30386705 0,11.6923032 C0,12.9685981 0.586849432,13.9781433 1.54304466,14.5198505 C2.04781725,14.8030156 2.65108205,14.9589616 3.32821601,14.9589616 C4.6701724,14.9589616 5.52787542,14.3926314 6.09420564,13.3461516 C6.09420564,13.3256324 8.503161,9.13560953 8.503161,9.13560953 C8.503161,10.9905462 8.503161,12.8495867 8.503161,14.7086272 C8.503161,14.790704 8.58523784,14.8358463 8.67141853,14.8358463 C9.32803327,14.8358463 9.98464802,14.8358463 10.6412628,14.8358463 C10.7233396,14.8358463 10.8095203,14.790704 10.8095203,14.7086272 C10.8095203,11.306542 10.8095203,7.90445687 10.8095203,4.50647555 C10.8095203,4.46133328 10.7890011,4.4243987 10.7561704,4.39977565 C10.7233396,4.37104876 10.6823012,4.35873723 10.6412628,4.35873723" id="Path"></path>
                <path d="M19.0213085,4.23151812 C17.7450136,4.23151812 16.5918339,4.73629071 15.9434269,5.44625541 L15.9434269,1.15363649 C15.9434269,1.07155964 15.8818692,1.00589817 15.7956885,1.00589817 L13.7848059,1.00589817 C13.7232482,1.00589817 13.6370676,1.0674558 13.6370676,1.15363649 L13.6370676,14.688108 C13.6370676,14.7701848 13.7191444,14.8358463 13.7848059,14.8358463 L15.7956885,14.8358463 C15.8777654,14.8358463 15.9434269,14.7742887 15.9434269,14.688108 L15.9434269,13.7647435 C16.6123531,14.3926314 17.6629367,14.9589616 19.0213085,14.9589616 C22.1648516,14.9589616 24.2783363,12.8660021 24.2783363,9.59523985 C24.2824342,6.32858147 22.1648516,4.23151812 19.0213085,4.23151812 Z M18.8981932,12.738783 C17.0966065,12.738783 15.9229077,11.3968266 15.9229077,9.59523985 C15.9229077,7.77313392 17.0966065,6.47221595 18.8981932,6.47221595 C20.7408184,6.47221595 21.9350364,7.77313392 21.9350364,9.59523985 C21.9350364,11.3968266 20.7408184,12.738783 18.8981932,12.738783 Z" id="Shape"></path>
                <path d="M29.1413833,1.57222839 C29.1413833,2.45045062 28.4273148,3.12348073 27.5696118,3.12348073 C26.6667665,3.12348073 25.977321,2.45455446 25.977321,1.55170918 C25.977321,0.65296774 26.6913895,-0.0200623771 27.590131,0.000456833834 C28.4519378,0.000456833834 29.1413833,0.673486951 29.1413833,1.57222839 Z M28.5545339,4.35873723 L26.5641704,4.35873723 C26.4820936,4.35873723 26.3959129,4.44081407 26.3959129,4.52699476 L26.3959129,14.7086272 C26.3959129,14.790704 26.4779897,14.8358463 26.5641704,14.8358463 L28.5545339,14.8358463 C28.6366107,14.8358463 28.7022722,14.7948079 28.7022722,14.7086272 L28.7022722,4.52699476 C28.7022722,4.44081407 28.6407146,4.35873723 28.5545339,4.35873723 Z" id="Shape"></path>
                <path d="M33.6679212,1.00589817 L31.6775578,1.00589817 C31.6160002,1.00589817 31.5298195,1.0674558 31.5298195,1.15363649 L31.5298195,14.7086272 C31.5298195,14.790704 31.6118963,14.8358463 31.6775578,14.8358463 L33.6679212,14.8358463 C33.7499981,14.8358463 33.8361788,14.7948079 33.8361788,14.7086272 L33.8361788,1.15363649 C33.8361788,1.0674558 33.7499981,1.00589817 33.6679212,1.00589817 Z" id="Path"></path>
                <path d="M46.4472858,4.35873723 L44.4569223,4.35873723 C44.3502224,4.35873723 44.2886648,4.44081407 44.2886648,4.52699476 L44.2886648,5.49139767 C43.8700729,4.90454824 42.6553356,4.23562196 41.2723408,4.23562196 C38.2560168,4.23562196 35.9496575,6.45580058 35.9496575,9.59934369 C35.9496575,12.7428868 38.2560168,14.9630654 41.2723408,14.9630654 C42.6758548,14.9630654 43.8700729,14.2941391 44.2886648,13.7278089 L44.2886648,14.6922118 C44.2886648,14.7742887 44.3502224,14.8399502 44.4569223,14.8399502 L46.4472858,14.8399502 C46.5293626,14.8399502 46.5950241,14.7783925 46.5950241,14.6922118 L46.5950241,4.52699476 C46.5950241,4.44081407 46.5293626,4.35873723 46.4472858,4.35873723 Z M41.3544176,12.738783 C39.6143886,12.738783 38.2970552,11.3147497 38.2970552,9.59523985 C38.2970552,7.85521077 39.6184924,6.47221595 41.3544176,6.47221595 C43.0739275,6.47221595 44.3297032,7.85521077 44.3297032,9.59523985 C44.3297032,11.3147497 43.0739275,12.738783 41.3544176,12.738783 Z" id="Shape"></path>
                <path d="M54.8068123,4.23151812 C53.5058943,4.23151812 52.3978569,4.73629071 51.7289307,5.44625541 L51.7289307,1.15363649 C51.7289307,1.07155964 51.667373,1.00589817 51.5811924,1.00589817 L49.5497905,1.00589817 C49.4882328,1.00589817 49.4225714,1.0674558 49.4225714,1.15363649 L49.4225714,14.688108 C49.4225714,14.7701848 49.484129,14.8358463 49.5497905,14.8358463 L51.5811924,14.8358463 C51.6632692,14.8358463 51.7289307,14.7742887 51.7289307,14.688108 L51.7289307,13.7647435 C52.4183762,14.3926314 53.4484405,14.9589616 54.8068123,14.9589616 C57.9298362,14.9589616 60.0638341,12.8660021 60.0638341,9.59523985 C60.0638341,6.32858147 57.9298362,4.23151812 54.8068123,4.23151812 Z M54.7001124,12.738783 C52.8574873,12.738783 51.7043076,11.3968266 51.7043076,9.59523985 C51.7043076,7.77313392 52.8574873,6.47221595 54.7001124,6.47221595 C56.5427375,6.47221595 57.7164471,7.77313392 57.7164471,9.59523985 C57.7205403,11.3968266 56.5468414,12.738783 54.7001124,12.738783 Z" id="Shape"></path>
                <path d="M66.6422932,8.69649841 C64.7586296,8.27790651 64.0855995,8.13016819 64.0855995,7.39558044 C64.0855995,6.66099269 64.6314105,6.32858147 65.7599671,6.32858147 C66.8064468,6.32858147 67.9391073,6.7882118 68.3987376,7.08368844 C68.4602952,7.12472686 68.5669951,7.10420765 68.6080336,7.0221308 L69.4452174,5.51191688 C69.4862558,5.42984004 69.4862558,5.34365935 69.4041789,5.28210172 C68.5013337,4.65421387 67.1429619,4.23562196 65.6943056,4.23562196 C63.0965735,4.23562196 61.7546171,5.55705914 61.7546171,7.39968428 C61.7546171,9.0945711 62.71902,10.0384548 64.9597179,10.4775659 C66.802343,10.8346002 67.4302309,11.0849346 67.4302309,11.8195223 C67.4302309,12.5335909 66.8844198,12.9070405 65.6286441,12.9070405 C64.6026836,12.9070405 63.3674271,12.5089678 62.5056202,11.9426376 C62.4440626,11.9015992 62.3578819,11.9221184 62.3168435,11.983676 L61.4139982,13.5759668 C61.3729598,13.6580436 61.3729598,13.7647435 61.4345174,13.8057819 C62.6902931,14.6224465 64.2415455,15 65.7517594,15 C68.3084531,15 69.7530055,13.6785628 69.7530055,11.7333416 C69.7653171,10.1000124 68.8419526,9.17664795 66.6422932,8.69649841 Z" id="Path"></path>
            </g>
        </g>
    </g>
</svg>