<?xml version="1.0" encoding="UTF-8"?>
<svg width="72px" height="16px" viewBox="0 0 72 16" version="1.1" xmlns="http://www.w3.org/2000/svg" xmlns:xlink="http://www.w3.org/1999/xlink">
    <title>Logos/Mono/vizzuality</title>
    <g id="Page-1" stroke="none" stroke-width="1" fill="none" fill-rule="evenodd">
        <g id="deckglsummit2022-medium" transform="translate(-969.000000, -4045.000000)" fill="#6F777C">
            <g id="Group-5" transform="translate(943.000000, 3679.000000)">
                <g id="Logos/Mono/vizzuality" transform="translate(26.000000, 366.000000)">
                    <path d="M69.6,15.2 C70.4836556,15.2 71.2,14.4836556 71.2,13.6 C71.2,12.7163444 70.4836556,12 69.6,12 C68.7163444,12 68,12.7163444 68,13.6 C68,14.4836556 68.7163444,15.2 69.6,15.2 Z M61.9314868,16 C61.3570622,16 60.8460283,15.8927568 60.5616382,15.7682162 L61.0492262,14.0972973 C61.9662215,14.364973 62.5701706,14.2875676 62.9704877,13.2765405 L63.1506738,12.7831351 L59.91731,3.45945946 L62.1464076,3.45945946 L64.2009635,10.3567568 L64.2938787,10.3567568 L66.3545132,3.45945946 L68.6009781,3.47113514 L65.0193992,13.699027 C64.5144439,15.1316757 63.5687925,16 61.931921,16 L61.9314868,16 Z M59.3229129,3.44648649 L59.3229129,5.08108108 L57.590087,5.08108108 L57.590087,9.71805405 C57.590087,10.5708108 58.0077714,10.7576216 58.5279231,10.7576216 C58.7853939,10.7576216 59.0198529,10.7048649 59.1340432,10.6754595 L59.4831266,12.3286486 C59.2599563,12.4043243 58.8539949,12.5210811 58.264808,12.5388108 C56.7091288,12.5855135 55.5081775,11.7561081 55.5199005,10.0683243 L55.5199005,5.08151351 L54.2729257,5.08151351 L54.2729257,3.44648649 L55.5199005,3.44648649 L55.5199005,1.2972973 L57.590087,1.2972973 L57.590087,3.44648649 L59.3229129,3.44648649 Z M52.5392314,2.16216216 C51.8184869,2.16216216 51.2336419,1.67783784 51.2336419,1.08367568 C51.2336419,0.484324324 51.8180528,0 52.5392314,0 C53.2543315,0 53.8387423,0.484324324 53.8387423,1.08367568 C53.8387423,1.67783784 53.2543315,2.16216216 52.5392314,2.16216216 Z M51.2336419,12.5405405 L51.2336419,3.45945946 L53.4045589,3.45945946 L53.4045589,12.5405405 L51.2336419,12.5405405 Z M49.9310917,0.432432432 L49.9310917,12.5405405 L47.7601746,12.5405405 L47.7601746,0.432432432 L49.9310917,0.432432432 Z M42.2764382,11.2432432 C43.5073482,11.2432432 44.2867074,10.3602162 44.2867074,9.31891892 L44.2867074,8.21621622 C44.0214213,8.44756757 42.94812,8.59372973 42.4114693,8.67286486 C41.4966448,8.81297297 40.8132402,9.16627027 40.8132402,10.012973 C40.8132402,10.8229189 41.4232678,11.2432432 42.2764382,11.2432432 Z M41.6742258,12.972973 C39.9461759,12.972973 38.6423231,12.0138378 38.6423231,10.2032432 C38.6423231,8.1292973 40.3234813,7.59567568 42.0810557,7.40410811 C43.679719,7.23027027 44.3223104,7.2 44.3223104,6.57686486 L44.3223104,6.54054054 C44.3223104,5.63545946 43.7795812,5.12 42.7887747,5.12 C41.7449977,5.12 41.1432195,5.65967568 40.9304697,6.28886486 L38.9375678,6.0012973 C39.4086568,4.32259459 40.8714207,3.45945946 42.7766175,3.45945946 C44.5046675,3.45945946 46.4571902,4.1907027 46.4571902,6.62486486 L46.4571902,12.787027 L44.4043711,12.787027 L44.4043711,11.5221622 L44.3335992,11.5221622 C43.9450051,12.2957838 43.0957423,12.972973 41.6742258,12.972973 Z M35.663825,8.65383784 L35.663825,3.45945946 L37.7739563,3.45945946 L37.7739563,12.4237838 L35.7285183,12.4237838 L35.7285183,10.8307027 L35.6351689,10.8307027 C35.2270365,11.8343784 34.2831217,12.5405405 32.9423634,12.5405405 C31.1830522,12.5405405 29.958655,11.3210811 29.958655,9.16756757 L29.958655,3.45945946 L32.0687864,3.45945946 L32.0687864,8.84021622 C32.0687864,9.97837838 32.7443757,10.6962162 33.7586282,10.6962162 C34.6908199,10.6962162 35.6642591,10.0194595 35.6642591,8.65383784 L35.663825,8.65383784 Z M21.2749869,12.5405405 L21.2749869,11.1805405 L25.9107631,5.31027027 L25.9107631,5.23372973 L21.4273853,5.23372973 L21.4273853,3.45945946 L28.5037064,3.45945946 L28.5037064,4.91978378 L24.0906663,10.6901622 L24.0906663,10.7667027 L28.6561048,10.7667027 L28.6561048,12.5405405 L21.2749869,12.5405405 Z M13.0255022,12.5405405 L13.0255022,11.1805405 L17.6612784,5.31027027 L17.6612784,5.23372973 L13.1779006,5.23372973 L13.1779006,3.45945946 L20.2542217,3.45945946 L20.2542217,4.91978378 L15.8411816,10.6901622 L15.8411816,10.7667027 L20.4066201,10.7667027 L20.4066201,12.5405405 L13.0255022,12.5405405 Z M10.423441,2.16216216 C9.70269657,2.16216216 9.11785152,1.67783784 9.11785152,1.08367568 C9.11785152,0.484324324 9.70226239,0 10.423441,0 C11.1385411,0 11.722952,0.484324324 11.722952,1.08367568 C11.722952,1.67783784 11.1385411,2.16216216 10.423441,2.16216216 Z M9.55203493,12.5405405 L9.55203493,3.45945946 L11.722952,3.45945946 L11.722952,12.5405405 L9.55203493,12.5405405 Z M8.68366812,3.45945946 L5.50414304,12.5405405 L3.17952508,12.5405405 L0,3.45945946 L2.24342566,3.45945946 L4.29537643,10.2054054 L4.38829168,10.2054054 L6.44632103,3.45945946 L8.68366812,3.45945946 Z" id="Shape"></path>
                </g>
            </g>
        </g>
    </g>
</svg>