<?xml version="1.0" encoding="UTF-8"?>
<svg width="409px" height="136px" viewBox="0 0 409 136" version="1.1" xmlns="http://www.w3.org/2000/svg" xmlns:xlink="http://www.w3.org/1999/xlink">
    <title>logo</title>
    <g id="Page-1" stroke="none" stroke-width="1" fill="none" fill-rule="evenodd">
        <g id="deckglsummit2022-medium" transform="translate(-89.000000, -166.000000)" fill="#FFFFFF">
            <g id="logo" transform="translate(89.000000, 166.000000)">
                <g id="SUMMIT" transform="translate(0.000000, 57.708941)" fill-rule="nonzero">
                    <path d="M55.4024689,56.8120301 C55.4024689,68.840286 64.3162657,78.2910585 77.3110779,78.2910585 C83.3252058,78.2910585 88.6949629,76.0357605 92.561188,72.0621403 L92.561188,77.0023168 L106.629952,77.0023168 L106.629952,21.4790284 L92.561188,21.4790284 L92.561188,54.0197564 C92.561188,61.1078358 87.8358018,65.9406172 80.9625127,65.9406172 C74.0892236,65.9406172 69.4712325,60.8930455 69.4712325,54.0197564 L69.4712325,21.4790284 L55.4024689,21.4790284 L55.4024689,56.8120301 Z" id="Path"></path>
                    <path d="M130.256883,44.1394034 C130.256883,37.051324 134.767479,32.540728 141.318582,32.540728 C147.869686,32.540728 152.380282,37.2661143 152.380282,44.1394034 L152.380282,77.0023168 L166.341651,77.0023168 L166.341651,44.1394034 C166.341651,37.051324 170.959642,32.540728 177.40335,32.540728 C183.954454,32.540728 188.46505,37.2661143 188.46505,44.1394034 L188.46505,77.0023168 L202.426418,77.0023168 L202.426418,41.2397345 C202.426418,29.3188738 193.942202,19.9754964 181.269575,19.9754964 C173.751915,19.9754964 167.200812,23.6269312 163.441982,29.7484543 C159.897942,23.8417215 153.346838,19.9754964 145.184808,19.9754964 C139.38547,19.9754964 134.015713,22.2307944 130.256883,25.9896244 L130.256883,21.4790284 L116.295514,21.4790284 L116.295514,77.0023168 L130.256883,77.0023168 L130.256883,44.1394034 Z" id="Path"></path>
                    <path d="M226.160745,44.1394034 C226.160745,37.051324 230.671341,32.540728 237.222444,32.540728 C243.773548,32.540728 248.284144,37.2661143 248.284144,44.1394034 L248.284144,77.0023168 L262.245512,77.0023168 L262.245512,44.1394034 C262.245512,37.051324 266.863503,32.540728 273.307212,32.540728 C279.858316,32.540728 284.368912,37.2661143 284.368912,44.1394034 L284.368912,77.0023168 L298.33028,77.0023168 L298.33028,41.2397345 C298.33028,29.3188738 289.846064,19.9754964 277.173437,19.9754964 C269.655777,19.9754964 263.104674,23.6269312 259.345844,29.7484543 C255.801804,23.8417215 249.2507,19.9754964 241.088669,19.9754964 C235.289332,19.9754964 229.919575,22.2307944 226.160745,25.9896244 L226.160745,21.4790284 L212.199376,21.4790284 L212.199376,77.0023168 L226.160745,77.0023168 L226.160745,44.1394034 Z" id="Path"></path>
                    <path d="M315.191317,15.5722956 C319.594518,15.5722956 322.923768,12.135651 322.923768,7.73245022 C322.923768,3.3292494 319.594518,7.10542736e-15 315.191317,7.10542736e-15 C310.788117,7.10542736e-15 307.244077,3.3292494 307.244077,7.73245022 C307.244077,12.135651 310.788117,15.5722956 315.191317,15.5722956 Z M322.172002,21.4790284 L308.103238,21.4790284 L308.103238,77.0023168 L322.172002,77.0023168 L322.172002,21.4790284 Z" id="Shape"></path>
                    <path d="M354.175754,77.0023168 L365.130058,77.0023168 L365.130058,64.8666658 L358.149374,64.8666658 C354.92752,64.8666658 352.887012,63.4705289 352.887012,60.5708601 L352.887012,33.6146794 L365.130058,33.6146794 L365.130058,21.4790284 L352.887012,21.4790284 L352.887012,5.3697571 L338.925644,5.3697571 L338.925644,21.4790284 L328.078734,21.4790284 L328.078734,33.6146794 L338.925644,33.6146794 L338.925644,63.0409484 C338.925644,70.9881889 344.080611,77.0023168 354.175754,77.0023168 Z" id="Path"></path>
                    <g id="s" transform="translate(0.000000, 20.082892)">
                        <path d="M25.6674389,58.208167 C39.0918317,58.208167 47.2538625,50.5831119 47.2538625,40.5953637 C47.2538625,32.3259377 42.2062908,26.9561806 32.0037523,24.4860924 L21.3716333,21.908609 C16.9684324,20.8346575 14.7131345,18.901545 14.7131345,16.0018762 C14.7131345,13.1022073 17.0758276,10.8469093 21.5864235,10.8469093 C26.2044146,10.8469093 31.3593815,13.2096025 32.8629135,19.0089401 L46.0725159,19.0089401 C44.4615888,8.37682108 35.8699774,0 21.6938187,0 C9.77295792,0 0.966556278,6.87328909 0.966556278,17.5054081 C0.966556278,25.9896244 6.22891824,31.3593815 16.5388519,33.8294697 L28.0301321,36.5143483 C31.788962,37.4809046 33.6146794,39.4140171 33.6146794,41.6693151 C33.6146794,44.9985645 30.8224058,47.3612576 25.6674389,47.3612576 C19.653311,47.3612576 14.7131345,44.9985645 13.3169976,39.4140171 L0,39.4140171 C2.14790284,50.0461362 11.0616996,58.208167 25.6674389,58.208167 Z" id="Path"></path>
                    </g>
                </g>
                <g id="deck.gl" transform="translate(155.098200, 0.000000)" fill-rule="nonzero">
                    <path d="M44.1706107,53.9606065 L44.1706107,0 L34.0722687,0 L34.0722687,17.8070001 C30.526286,14.8777101 26.1323509,13.1047187 21.2758963,13.1047187 C9.40456285,13.1047187 2.84217094e-14,22.5092816 2.84217094e-14,34.0722687 C2.84217094e-14,45.5581692 9.40456285,55.0398186 21.2758963,55.0398186 C26.1323509,55.0398186 30.6033725,53.2668273 34.1493553,50.2604506 L34.1493553,53.9606065 L44.1706107,53.9606065 Z M34.2264418,34.0722687 C34.2264418,40.7788012 28.8303812,46.2519484 22.1238487,46.2519484 C15.4944027,46.2519484 10.0212555,40.7788012 10.0212555,34.0722687 C10.0212555,27.2886496 15.4944027,21.9696755 22.1238487,21.9696755 C28.8303812,21.9696755 34.2264418,27.2886496 34.2264418,34.0722687 Z" id="Shape"></path>
                    <path d="M49.7208446,33.9951821 C49.7208446,46.1748618 59.1254074,54.962732 71.3050871,54.962732 C78.7053989,54.962732 84.7181522,51.8021822 88.7266544,46.329035 L81.7117755,41.0871475 C78.7824855,44.86439 75.4677625,46.329035 71.2280006,46.329035 C65.6777668,46.329035 61.3609182,42.5517925 60.0504464,37.3869916 L90.8079921,37.3869916 L90.8079921,34.4577016 C90.8079921,22.0467621 82.3284682,13.1818053 70.3800482,13.1818053 C58.5858013,13.1818053 49.7208446,22.8947145 49.7208446,33.9951821 Z M70.1487884,21.8155023 C75.005243,21.8155023 79.1679184,24.7447924 80.6325634,29.6783336 L60.2046195,29.6783336 C61.592178,24.821879 65.446507,21.8155023 70.1487884,21.8155023 Z" id="Shape"></path>
                    <path d="M105.069009,33.9951821 C105.069009,27.2886496 110.387984,21.9696755 116.940343,21.9696755 C121.180105,21.9696755 124.649001,23.9739266 126.961598,27.1344764 L134.13065,21.8925889 C130.122148,16.6507014 124.726088,13.1047187 116.940343,13.1047187 C104.60649,13.1047187 95.047754,22.432195 95.047754,33.9951821 C95.047754,45.5581692 104.60649,54.962732 116.940343,54.962732 C124.726088,54.962732 130.122148,51.4167493 134.13065,46.1748618 L126.961598,40.9329744 C124.649001,44.0935242 121.180105,46.0977753 116.940343,46.0977753 C110.387984,46.0977753 105.069009,40.7017146 105.069009,33.9951821 Z" id="Path"></path>
                    <polygon id="Path" points="138.293326 0 138.293326 53.9606065 148.391668 53.9606065 148.391668 36.1536063 162.652685 53.9606065 174.986538 53.9606065 157.719144 33.3014029 173.830239 14.1068443 162.267252 14.1068443 148.391668 31.2971518 148.391668 0"></polygon>
                    <path d="M182.61811,43.1684852 C179.380473,43.1684852 176.75953,45.7123424 176.75953,48.9499787 C176.75953,52.1876151 179.380473,54.7314723 182.61811,54.7314723 C185.855746,54.7314723 188.47669,52.1876151 188.47669,48.9499787 C188.47669,45.7123424 185.855746,43.1684852 182.61811,43.1684852 Z" id="Path"></path>
                    <path d="M236.809976,14.1068443 L226.78872,14.1068443 L226.78872,17.5757404 C223.319824,14.7235369 218.925889,13.0276321 214.223608,13.0276321 C202.660621,13.0276321 193.256058,22.2009352 193.256058,33.6868358 C193.256058,45.1727363 202.583534,54.3460394 214.223608,54.3460394 C218.925889,54.3460394 223.242738,52.6501346 226.711634,49.8750177 L226.711634,54.7314723 C226.711634,59.202494 224.244863,61.6692646 219.465495,61.6692646 L210.600538,61.6692646 L210.600538,70.1487884 L221.778093,70.1487884 C230.874309,70.1487884 236.809976,64.2902083 236.809976,55.5023381 L236.809976,14.1068443 Z M203.277313,33.6868358 C203.277313,27.1344764 208.596287,21.8155023 215.07156,21.8155023 C221.62392,21.8155023 226.865807,27.0573898 226.865807,33.6868358 C226.865807,40.2391951 221.701006,45.4810826 215.07156,45.4810826 C208.519201,45.4810826 203.277313,40.2391951 203.277313,33.6868358 Z" id="Shape"></path>
                    <polygon id="Path" points="253.84611 53.9606065 253.84611 0 243.747768 0 243.747768 53.9606065"></polygon>
                </g>
                <rect id="Rectangle" x="114.473572" y="20.2352274" width="30.1119456" height="30.1119456"></rect>
            </g>
        </g>
    </g>
</svg>