<?xml version="1.0" encoding="UTF-8"?>
<svg width="395.541209px" height="128.248px" viewBox="0 0 395.541209 128.248" version="1.1" xmlns="http://www.w3.org/2000/svg" xmlns:xlink="http://www.w3.org/1999/xlink">
    <title>Group 2</title>
    <g id="Group-2" stroke="none" stroke-width="1" fill="none" fill-rule="evenodd">
        <rect id="Rectangle" fill="#FFFFFF" x="0" y="0" width="32" height="32"></rect>
        <g id="Open-Visualization-C" transform="translate(45.260000, 1.188000)" fill="#FFFFFF" fill-rule="nonzero">
            <path d="M-2.84217094e-14,13.212 C-2.84217094e-14,20.484 5.868,26.28 13.428,26.28 C20.952,26.28 26.82,20.484 26.82,13.212 C26.82,5.94 20.952,0.144 13.428,0.144 C5.868,0.144 -2.84217094e-14,5.94 -2.84217094e-14,13.212 Z M4.968,13.212 C4.968,8.352 8.712,4.608 13.428,4.608 C18.144,4.608 21.852,8.352 21.852,13.212 C21.852,18.108 18.144,21.816 13.428,21.816 C8.712,21.816 4.968,18.108 4.968,13.212 Z" id="Shape"></path>
            <path d="M30.0348837,7.2 L30.0348837,33.372 L34.7508837,33.372 L34.7508837,24.12 C36.4068837,25.488 38.4588837,26.316 40.7268837,26.316 C46.2708837,26.316 50.6628837,21.924 50.6628837,16.524 C50.6628837,11.16 46.2708837,6.732 40.7268837,6.732 C38.4588837,6.732 36.3708837,7.56 34.7148837,8.964 L34.7148837,7.2 L30.0348837,7.2 Z M34.6788837,16.524 C34.6788837,13.392 37.1988837,10.836 40.3308837,10.836 C43.4268837,10.836 45.9828837,13.392 45.9828837,16.524 C45.9828837,19.692 43.4268837,22.176 40.3308837,22.176 C37.1988837,22.176 34.6788837,19.692 34.6788837,16.524 Z" id="Shape"></path>
            <path d="M52.9417674,16.488 C52.9417674,22.176 57.3337674,26.28 63.0217674,26.28 C66.4777674,26.28 69.2857674,24.804 71.1577674,22.248 L67.8817674,19.8 C66.5137674,21.564 64.9657674,22.248 62.9857674,22.248 C60.3937674,22.248 58.3777674,20.484 57.7657674,18.072 L72.1297674,18.072 L72.1297674,16.704 C72.1297674,10.908 68.1697674,6.768 62.5897674,6.768 C57.0817674,6.768 52.9417674,11.304 52.9417674,16.488 Z M62.4817674,10.8 C64.7497674,10.8 66.6937674,12.168 67.3777674,14.472 L57.8377674,14.472 C58.4857674,12.204 60.2857674,10.8 62.4817674,10.8 Z" id="Shape"></path>
            <path d="M92.2646512,13.968 C92.2646512,9.9 89.2766512,6.696 84.9206512,6.696 C82.9046512,6.696 81.1046512,7.452 79.8086512,8.784 L79.8086512,7.2 L75.0926512,7.2 L75.0926512,25.812 L79.8086512,25.812 L79.8086512,14.904 C79.8086512,12.42 81.4286512,10.908 83.6966512,10.908 C86.0006512,10.908 87.5486512,12.492 87.5486512,14.904 L87.5486512,25.812 L92.2646512,25.812 L92.2646512,13.968 Z" id="Path"></path>
            <polygon id="Path" points="112.194419 25.812 117.090419 25.812 127.710419 0.612 122.562419 0.612 114.750419 20.052 106.938419 0.612 101.574419 0.612"></polygon>
            <path d="M131.861302,5.22 C133.337302,5.22 134.453302,4.068 134.453302,2.592 C134.453302,1.116 133.337302,0 131.861302,0 C130.385302,0 129.197302,1.116 129.197302,2.592 C129.197302,4.068 130.385302,5.22 131.861302,5.22 Z M134.201302,7.2 L129.485302,7.2 L129.485302,25.812 L134.201302,25.812 L134.201302,7.2 Z" id="Shape"></path>
            <path d="M145.300186,26.244 C149.800186,26.244 152.536186,23.688 152.536186,20.34 C152.536186,17.568 150.844186,15.768 147.424186,14.94 L143.860186,14.076 C142.384186,13.716 141.628186,13.068 141.628186,12.096 C141.628186,11.124 142.420186,10.368 143.932186,10.368 C145.480186,10.368 147.208186,11.16 147.712186,13.104 L152.140186,13.104 C151.600186,9.54 148.720186,6.732 143.968186,6.732 C139.972186,6.732 137.020186,9.036 137.020186,12.6 C137.020186,15.444 138.784186,17.244 142.240186,18.072 L146.092186,18.972 C147.352186,19.296 147.964186,19.944 147.964186,20.7 C147.964186,21.816 147.028186,22.608 145.300186,22.608 C143.284186,22.608 141.628186,21.816 141.160186,19.944 L136.696186,19.944 C137.416186,23.508 140.404186,26.244 145.300186,26.244 Z" id="Path"></path>
            <path d="M155.17507,19.044 C155.17507,23.076 158.16307,26.244 162.51907,26.244 C164.53507,26.244 166.33507,25.488 167.63107,24.156 L167.63107,25.812 L172.34707,25.812 L172.34707,7.2 L167.63107,7.2 L167.63107,18.108 C167.63107,20.484 166.04707,22.104 163.74307,22.104 C161.43907,22.104 159.89107,20.412 159.89107,18.108 L159.89107,7.2 L155.17507,7.2 L155.17507,19.044 Z" id="Path"></path>
            <path d="M175.093953,20.592 C175.093953,23.868 177.829953,26.28 181.537953,26.28 C184.021953,26.28 186.073953,25.272 187.369953,23.616 C188.017953,24.984 189.385953,25.812 191.185953,25.812 L193.381953,25.812 L193.381953,21.744 L192.409953,21.744 C191.725953,21.744 191.365953,21.348 191.365953,20.664 L191.365953,13.356 C191.365953,9.396 188.413953,6.804 183.949953,6.804 C181.105953,6.804 178.621953,7.704 176.461953,9.288 L178.441953,12.636 C180.097953,11.52 181.681953,10.98 183.373953,10.98 C185.569953,10.98 186.793953,12.096 186.793953,13.932 L186.793953,14.652 L181.321953,15.048 C177.361953,15.336 175.093953,17.244 175.093953,20.592 Z M179.593953,20.556 C179.593953,19.332 180.385953,18.684 181.969953,18.54 L186.793953,18.108 L186.793953,19.296 C186.793953,21.168 184.921953,22.68 182.581953,22.68 C180.817953,22.68 179.593953,21.852 179.593953,20.556 Z" id="Shape"></path>
            <polygon id="Path" points="200.592837 25.812 200.592837 0.612 195.876837 0.612 195.876837 25.812"></polygon>
            <path d="M206.543721,5.22 C208.019721,5.22 209.135721,4.068 209.135721,2.592 C209.135721,1.116 208.019721,0 206.543721,0 C205.067721,0 203.879721,1.116 203.879721,2.592 C203.879721,4.068 205.067721,5.22 206.543721,5.22 Z M208.883721,7.2 L204.167721,7.2 L204.167721,25.812 L208.883721,25.812 L208.883721,7.2 Z" id="Shape"></path>
            <polygon id="Path" points="211.954605 11.268 221.026605 11.268 211.774605 22.428 211.774605 25.812 227.002605 25.812 227.002605 21.744 217.642605 21.744 226.750605 10.692 226.750605 7.2 211.954605 7.2"></polygon>
            <path d="M228.669488,20.592 C228.669488,23.868 231.405488,26.28 235.113488,26.28 C237.597488,26.28 239.649488,25.272 240.945488,23.616 C241.593488,24.984 242.961488,25.812 244.761488,25.812 L246.957488,25.812 L246.957488,21.744 L245.985488,21.744 C245.301488,21.744 244.941488,21.348 244.941488,20.664 L244.941488,13.356 C244.941488,9.396 241.989488,6.804 237.525488,6.804 C234.681488,6.804 232.197488,7.704 230.037488,9.288 L232.017488,12.636 C233.673488,11.52 235.257488,10.98 236.949488,10.98 C239.145488,10.98 240.369488,12.096 240.369488,13.932 L240.369488,14.652 L234.897488,15.048 C230.937488,15.336 228.669488,17.244 228.669488,20.592 Z M233.169488,20.556 C233.169488,19.332 233.961488,18.684 235.545488,18.54 L240.369488,18.108 L240.369488,19.296 C240.369488,21.168 238.497488,22.68 236.157488,22.68 C234.393488,22.68 233.169488,21.852 233.169488,20.556 Z" id="Shape"></path>
            <path d="M256.040372,25.812 L259.712372,25.812 L259.712372,21.744 L257.372372,21.744 C256.292372,21.744 255.608372,21.276 255.608372,20.304 L255.608372,11.268 L259.712372,11.268 L259.712372,7.2 L255.608372,7.2 L255.608372,1.8 L250.928372,1.8 L250.928372,7.2 L247.292372,7.2 L247.292372,11.268 L250.928372,11.268 L250.928372,21.132 C250.928372,23.796 252.656372,25.812 256.040372,25.812 Z" id="Path"></path>
            <path d="M264.439256,5.22 C265.915256,5.22 267.031256,4.068 267.031256,2.592 C267.031256,1.116 265.915256,0 264.439256,0 C262.963256,0 261.775256,1.116 261.775256,2.592 C261.775256,4.068 262.963256,5.22 264.439256,5.22 Z M266.779256,7.2 L262.063256,7.2 L262.063256,25.812 L266.779256,25.812 L266.779256,7.2 Z" id="Shape"></path>
            <path d="M290.15414,16.524 C290.15414,11.088 285.58214,6.732 279.93014,6.732 C274.31414,6.732 269.70614,11.124 269.70614,16.524 C269.70614,21.924 274.31414,26.316 279.93014,26.316 C285.58214,26.316 290.15414,21.924 290.15414,16.524 Z M285.47414,16.524 C285.47414,19.656 283.02614,22.14 279.93014,22.14 C276.87014,22.14 274.38614,19.656 274.38614,16.524 C274.38614,13.392 276.87014,10.908 279.93014,10.908 C283.02614,10.908 285.47414,13.392 285.47414,16.524 Z" id="Shape"></path>
            <path d="M310.253023,13.968 C310.253023,9.9 307.265023,6.696 302.909023,6.696 C300.893023,6.696 299.093023,7.452 297.797023,8.784 L297.797023,7.2 L293.081023,7.2 L293.081023,25.812 L297.797023,25.812 L297.797023,14.904 C297.797023,12.42 299.417023,10.908 301.685023,10.908 C303.989023,10.908 305.537023,12.492 305.537023,14.904 L305.537023,25.812 L310.253023,25.812 L310.253023,13.968 Z" id="Path"></path>
            <path d="M47,46.176 C47,53.556 52.616,59.28 60.536,59.28 C65.18,59.28 68.996,57.084 71.372,53.844 L67.592,51.072 C66.044,53.412 63.416,54.816 60.5,54.816 C55.784,54.816 51.932,51.36 51.932,46.176 C51.932,41.064 55.712,37.572 60.5,37.572 C63.2,37.572 65.864,39.048 67.484,41.352 L71.264,38.58 C68.78,35.34 64.964,33.144 60.428,33.144 C52.652,33.144 47,38.976 47,46.176 Z" id="Path"></path>
            <path d="M93.1628837,49.524 C93.1628837,44.088 88.5908837,39.732 82.9388837,39.732 C77.3228837,39.732 72.7148837,44.124 72.7148837,49.524 C72.7148837,54.924 77.3228837,59.316 82.9388837,59.316 C88.5908837,59.316 93.1628837,54.924 93.1628837,49.524 Z M88.4828837,49.524 C88.4828837,52.656 86.0348837,55.14 82.9388837,55.14 C79.8788837,55.14 77.3948837,52.656 77.3948837,49.524 C77.3948837,46.392 79.8788837,43.908 82.9388837,43.908 C86.0348837,43.908 88.4828837,46.392 88.4828837,49.524 Z" id="Shape"></path>
            <polygon id="Path" points="100.805767 58.812 100.805767 33.612 96.0897674 33.612 96.0897674 58.812"></polygon>
            <polygon id="Path" points="109.096651 58.812 109.096651 33.612 104.380651 33.612 104.380651 58.812"></polygon>
            <path d="M111.843535,53.592 C111.843535,56.868 114.579535,59.28 118.287535,59.28 C120.771535,59.28 122.823535,58.272 124.119535,56.616 C124.767535,57.984 126.135535,58.812 127.935535,58.812 L130.131535,58.812 L130.131535,54.744 L129.159535,54.744 C128.475535,54.744 128.115535,54.348 128.115535,53.664 L128.115535,46.356 C128.115535,42.396 125.163535,39.804 120.699535,39.804 C117.855535,39.804 115.371535,40.704 113.211535,42.288 L115.191535,45.636 C116.847535,44.52 118.431535,43.98 120.123535,43.98 C122.319535,43.98 123.543535,45.096 123.543535,46.932 L123.543535,47.652 L118.071535,48.048 C114.111535,48.336 111.843535,50.244 111.843535,53.592 Z M116.343535,53.556 C116.343535,52.332 117.135535,51.684 118.719535,51.54 L123.543535,51.108 L123.543535,52.296 C123.543535,54.168 121.671535,55.68 119.331535,55.68 C117.567535,55.68 116.343535,54.852 116.343535,53.556 Z" id="Shape"></path>
            <path d="M132.626419,58.812 L137.306419,58.812 L137.306419,57.084 C138.962419,58.488 141.050419,59.316 143.318419,59.316 C148.862419,59.316 153.254419,54.888 153.254419,49.524 C153.254419,44.124 148.862419,39.732 143.318419,39.732 C141.050419,39.732 138.998419,40.56 137.342419,41.928 L137.342419,33.612 L132.626419,33.612 L132.626419,58.812 Z M137.270419,49.524 C137.270419,46.356 139.790419,43.872 142.922419,43.872 C146.018419,43.872 148.574419,46.356 148.574419,49.524 C148.574419,52.656 146.018419,55.212 142.922419,55.212 C139.790419,55.212 137.270419,52.656 137.270419,49.524 Z" id="Shape"></path>
            <path d="M175.981302,49.524 C175.981302,44.088 171.409302,39.732 165.757302,39.732 C160.141302,39.732 155.533302,44.124 155.533302,49.524 C155.533302,54.924 160.141302,59.316 165.757302,59.316 C171.409302,59.316 175.981302,54.924 175.981302,49.524 Z M171.301302,49.524 C171.301302,52.656 168.853302,55.14 165.757302,55.14 C162.697302,55.14 160.213302,52.656 160.213302,49.524 C160.213302,46.392 162.697302,43.908 165.757302,43.908 C168.853302,43.908 171.301302,46.392 171.301302,49.524 Z" id="Shape"></path>
            <path d="M189.276186,44.34 L189.276186,40.02 L188.016186,40.02 C186.000186,40.02 184.524186,40.848 183.588186,42.216 L183.588186,40.2 L178.908186,40.2 L178.908186,58.812 L183.624186,58.812 L183.624186,48.804 C183.624186,45.96 185.352186,44.34 187.584186,44.34 L189.276186,44.34 Z" id="Path"></path>
            <path d="M189.64707,53.592 C189.64707,56.868 192.38307,59.28 196.09107,59.28 C198.57507,59.28 200.62707,58.272 201.92307,56.616 C202.57107,57.984 203.93907,58.812 205.73907,58.812 L207.93507,58.812 L207.93507,54.744 L206.96307,54.744 C206.27907,54.744 205.91907,54.348 205.91907,53.664 L205.91907,46.356 C205.91907,42.396 202.96707,39.804 198.50307,39.804 C195.65907,39.804 193.17507,40.704 191.01507,42.288 L192.99507,45.636 C194.65107,44.52 196.23507,43.98 197.92707,43.98 C200.12307,43.98 201.34707,45.096 201.34707,46.932 L201.34707,47.652 L195.87507,48.048 C191.91507,48.336 189.64707,50.244 189.64707,53.592 Z M194.14707,53.556 C194.14707,52.332 194.93907,51.684 196.52307,51.54 L201.34707,51.108 L201.34707,52.296 C201.34707,54.168 199.47507,55.68 197.13507,55.68 C195.37107,55.68 194.14707,54.852 194.14707,53.556 Z" id="Shape"></path>
            <path d="M217.017953,58.812 L220.689953,58.812 L220.689953,54.744 L218.349953,54.744 C217.269953,54.744 216.585953,54.276 216.585953,53.304 L216.585953,44.268 L220.689953,44.268 L220.689953,40.2 L216.585953,40.2 L216.585953,34.8 L211.905953,34.8 L211.905953,40.2 L208.269953,40.2 L208.269953,44.268 L211.905953,44.268 L211.905953,54.132 C211.905953,56.796 213.633953,58.812 217.017953,58.812 Z" id="Path"></path>
            <path d="M242.840837,49.524 C242.840837,44.088 238.268837,39.732 232.616837,39.732 C227.000837,39.732 222.392837,44.124 222.392837,49.524 C222.392837,54.924 227.000837,59.316 232.616837,59.316 C238.268837,59.316 242.840837,54.924 242.840837,49.524 Z M238.160837,49.524 C238.160837,52.656 235.712837,55.14 232.616837,55.14 C229.556837,55.14 227.072837,52.656 227.072837,49.524 C227.072837,46.392 229.556837,43.908 232.616837,43.908 C235.712837,43.908 238.160837,46.392 238.160837,49.524 Z" id="Shape"></path>
            <path d="M256.135721,44.34 L256.135721,40.02 L254.875721,40.02 C252.859721,40.02 251.383721,40.848 250.447721,42.216 L250.447721,40.2 L245.767721,40.2 L245.767721,58.812 L250.483721,58.812 L250.483721,48.804 C250.483721,45.96 252.211721,44.34 254.443721,44.34 L256.135721,44.34 Z" id="Path"></path>
        </g>
        <g id="Summit" transform="translate(27.432000, 52.432000)" fill="#FFFFFF" fill-rule="nonzero">
            <path d="M-2.84217094e-14,52 C1.144,66.144 13,75.816 28.912,75.816 C44.928,75.816 55.224,66.352 55.224,53.976 C55.224,43.056 49.4,36.816 35.776,33.28 L23.504,30.056 C17.888,28.6 14.56,25.896 14.56,21.216 C14.56,15.496 19.344,12.168 25.688,12.168 C33.488,12.168 38.168,16.64 39.728,23.816 L53.456,23.816 C51.48,9.984 40.872,0.52 25.792,0.52 C11.544,0.52 0.624,9.048 0.624,22.256 C0.624,33.176 6.968,39.728 19.968,43.056 L32.344,46.176 C37.856,47.528 41.288,50.856 41.288,55.12 C41.288,60.32 37.128,64.168 29.016,64.168 C20.072,64.168 14.664,59.488 13.624,52 L-2.84217094e-14,52 Z" id="Path"></path>
            <path d="M64.3034419,55.016 C64.3034419,66.664 72.9354419,75.816 85.5194419,75.816 C91.3434419,75.816 96.5434419,73.632 100.287442,69.784 L100.287442,74.568 L113.911442,74.568 L113.911442,20.8 L100.287442,20.8 L100.287442,52.312 C100.287442,59.176 95.7114419,63.856 89.0554419,63.856 C82.3994419,63.856 77.9274419,58.968 77.9274419,52.312 L77.9274419,20.8 L64.3034419,20.8 L64.3034419,55.016 Z" id="Path"></path>
            <path d="M137.758884,42.744 C137.758884,35.88 142.126884,31.512 148.470884,31.512 C154.814884,31.512 159.182884,36.088 159.182884,42.744 L159.182884,74.568 L172.702884,74.568 L172.702884,42.744 C172.702884,35.88 177.174884,31.512 183.414884,31.512 C189.758884,31.512 194.126884,36.088 194.126884,42.744 L194.126884,74.568 L207.646884,74.568 L207.646884,39.936 C207.646884,28.392 199.430884,19.344 187.158884,19.344 C179.878884,19.344 173.534884,22.88 169.894884,28.808 C166.462884,23.088 160.118884,19.344 152.214884,19.344 C146.598884,19.344 141.398884,21.528 137.758884,25.168 L137.758884,20.8 L124.238884,20.8 L124.238884,74.568 L137.758884,74.568 L137.758884,42.744 Z" id="Path"></path>
            <path d="M231.598326,42.744 C231.598326,35.88 235.966326,31.512 242.310326,31.512 C248.654326,31.512 253.022326,36.088 253.022326,42.744 L253.022326,74.568 L266.542326,74.568 L266.542326,42.744 C266.542326,35.88 271.014326,31.512 277.254326,31.512 C283.598326,31.512 287.966326,36.088 287.966326,42.744 L287.966326,74.568 L301.486326,74.568 L301.486326,39.936 C301.486326,28.392 293.270326,19.344 280.998326,19.344 C273.718326,19.344 267.374326,22.88 263.734326,28.808 C260.302326,23.088 253.958326,19.344 246.054326,19.344 C240.438326,19.344 235.238326,21.528 231.598326,25.168 L231.598326,20.8 L218.078326,20.8 L218.078326,74.568 L231.598326,74.568 L231.598326,42.744 Z" id="Path"></path>
            <path d="M318.781767,15.08 C323.045767,15.08 326.269767,11.752 326.269767,7.488 C326.269767,3.224 323.045767,0 318.781767,0 C314.517767,0 311.085767,3.224 311.085767,7.488 C311.085767,11.752 314.517767,15.08 318.781767,15.08 Z M325.541767,20.8 L311.917767,20.8 L311.917767,74.568 L325.541767,74.568 L325.541767,20.8 Z" id="Shape"></path>
            <path d="M357.501209,74.568 L368.109209,74.568 L368.109209,62.816 L361.349209,62.816 C358.229209,62.816 356.253209,61.464 356.253209,58.656 L356.253209,32.552 L368.109209,32.552 L368.109209,20.8 L356.253209,20.8 L356.253209,5.2 L342.733209,5.2 L342.733209,20.8 L332.229209,20.8 L332.229209,32.552 L342.733209,32.552 L342.733209,61.048 C342.733209,68.744 347.725209,74.568 357.501209,74.568 Z" id="Path"></path>
        </g>
    </g>
</svg>