<?xml version="1.0" encoding="UTF-8" standalone="no"?>
<svg
   xmlns:dc="http://purl.org/dc/elements/1.1/"
   xmlns:cc="http://creativecommons.org/ns#"
   xmlns:rdf="http://www.w3.org/1999/02/22-rdf-syntax-ns#"
   xmlns:svg="http://www.w3.org/2000/svg"
   xmlns="http://www.w3.org/2000/svg"
   id="svg8"
   version="1.1"
   viewBox="0 0 101.35452 20.462587"
   height="20.462587mm"
   width="101.35452mm">
  <defs
     id="defs2" />
  <metadata
     id="metadata5">
    <rdf:RDF>
      <cc:Work
         rdf:about="">
        <dc:format>image/svg+xml</dc:format>
        <dc:type
           rdf:resource="http://purl.org/dc/dcmitype/StillImage" />
        <dc:title></dc:title>
      </cc:Work>
    </rdf:RDF>
  </metadata>
  <g
     transform="translate(-63.983767,-38.75996)"
     id="layer1">
    <g
       id="g3784">
      <g
         style="fill:none"
         id="g30"
         transform="matrix(0.26458333,0,0,0.26458333,65.983767,41.83705)">
        <path
           id="path10"
           d="m 34.8209,23.3809 34.821,11.81 -34.821,11.81 L 0,35.1909 Z"
           style="fill:#7fcdbb;fill-opacity:0.8" />
        <path
           id="path12"
           d="m 91.8762,17 c 1.56,0 2.916,0.408 4.068,1.224 1.176,0.792 2.076,1.884 2.7,3.276 0.624,1.392 0.936,2.952 0.936,4.68 0,1.752 -0.3,3.324 -0.9,4.716 -0.576,1.368 -1.44,2.46 -2.592,3.276 -1.152,0.792 -2.556,1.188 -4.212,1.188 -1.224,0 -2.34,-0.216 -3.348,-0.648 -1.008,-0.432 -1.8,-1.056 -2.376,-1.872 v 10.872 h -3.24 V 17.36 h 2.52 l 0.36,2.448 C 87.2802,17.936 89.3082,17 91.8762,17 Z m -0.612,15.48 c 1.56,0 2.784,-0.552 3.672,-1.656 0.888,-1.128 1.332,-2.676 1.332,-4.644 0,-1.968 -0.444,-3.504 -1.332,-4.608 -0.888,-1.128 -2.112,-1.692 -3.672,-1.692 -1.536,0 -2.808,0.54 -3.816,1.62 -0.984,1.08 -1.476,2.64 -1.476,4.68 0,2.112 0.492,3.696 1.476,4.752 0.984,1.032 2.256,1.548 3.816,1.548 z m 16.7008,1.728 -7.344,-16.848 h 3.6 l 5.508,13.104 4.968,-13.104 h 3.6 l -10.8,26.352 h -3.6 z M 136.013,8 v 27 h -2.88 l -0.36,-2.16 c -0.6,0.816 -1.38,1.44 -2.34,1.872 -0.96,0.432 -1.98,0.648 -3.06,0.648 -1.488,0 -2.844,-0.408 -4.068,-1.224 -1.224,-0.816 -2.196,-1.92 -2.916,-3.312 -0.696,-1.392 -1.044,-2.928 -1.044,-4.608 0,-1.632 0.324,-3.156 0.972,-4.572 0.672,-1.416 1.62,-2.544 2.844,-3.384 1.224,-0.84 2.628,-1.26 4.212,-1.26 1.056,0 2.052,0.192 2.988,0.576 0.936,0.384 1.74,0.972 2.412,1.764 V 8 Z m -8.064,24.48 c 0.864,0 1.692,-0.216 2.484,-0.648 0.792,-0.456 1.44,-1.152 1.944,-2.088 0.504,-0.936 0.756,-2.112 0.756,-3.528 0,-1.32 -0.252,-2.46 -0.756,-3.42 -0.504,-0.96 -1.164,-1.68 -1.98,-2.16 -0.792,-0.504 -1.608,-0.756 -2.448,-0.756 -1.632,0 -2.928,0.6 -3.888,1.8 -0.936,1.176 -1.404,2.688 -1.404,4.536 0,1.776 0.48,3.264 1.44,4.464 0.96,1.2 2.244,1.8 3.852,1.8 z m 20.868,2.88 c -2.016,0 -3.744,-0.408 -5.184,-1.224 -1.416,-0.84 -2.496,-1.968 -3.24,-3.384 -0.744,-1.416 -1.116,-2.988 -1.116,-4.716 0,-1.656 0.336,-3.168 1.008,-4.536 0.696,-1.392 1.692,-2.484 2.988,-3.276 1.32,-0.816 2.868,-1.224 4.645,-1.224 2.255,0 4.079,0.66 5.471,1.98 1.416,1.32 2.124,3.144 2.124,5.472 0,0.6 -0.048,1.176 -0.144,1.728 h -12.78 c 0.216,2.28 0.912,3.9 2.088,4.86 1.176,0.96 2.688,1.44 4.536,1.44 1.848,0 3.54,-0.348 5.076,-1.044 l 0.432,2.556 c -2.04,0.912 -4.008,1.368 -5.904,1.368 z m 3.349,-11.412 c 0,-1.272 -0.36,-2.268 -1.08,-2.988 -0.721,-0.72 -1.801,-1.08 -3.241,-1.08 -1.392,0 -2.484,0.348 -3.276,1.044 -0.792,0.672 -1.356,1.68 -1.692,3.024 z m 14.713,11.412 c -1.92,0 -3.576,-0.396 -4.968,-1.188 -1.368,-0.792 -2.4,-1.872 -3.096,-3.24 -0.696,-1.392 -1.044,-2.94 -1.044,-4.644 0,-2.784 0.78,-5.028 2.34,-6.732 1.584,-1.704 3.924,-2.556 7.02,-2.556 1.824,0 3.432,0.348 4.824,1.044 l -0.504,2.844 c -1.464,-0.672 -2.928,-1.008 -4.392,-1.008 -1.92,0 -3.396,0.552 -4.428,1.656 -1.032,1.08 -1.548,2.616 -1.548,4.608 0,1.992 0.492,3.552 1.476,4.68 1.008,1.128 2.484,1.692 4.428,1.692 1.56,0 3.06,-0.36 4.5,-1.08 l 0.432,2.592 c -0.528,0.36 -1.26,0.672 -2.196,0.936 -0.912,0.264 -1.86,0.396 -2.844,0.396 z M 175.091,8 h 3.24 v 17.316 l 6.48,-7.956 h 3.96 l -7.02,8.208 7.2,9.432 h -3.96 l -6.66,-8.964 V 35 h -3.24 z"
           style="fill:#0c2c84" />
        <path
           id="path14"
           d="m 34.8209,15.4082 34.821,11.81 -34.821,11.81 L 0,27.2182 Z"
           style="fill:#1d91c0;fill-opacity:0.8" />
        <path
           id="path16"
           d="M 34.8209,7.07812 69.6419,18.8881 34.8209,30.6982 0,18.8881 Z"
           style="fill:#0c2c84;fill-opacity:0.8" />
      </g>
      <g
         id="g38"
         transform="matrix(0.18291764,0,0,0.18291764,121.26723,40.75996)"
         style="fill:#162945;fill-rule:evenodd">
        <circle
           id="circle34"
           r="45"
           cy="45"
           cx="185"
           style="opacity:0.1" />
        <path
           id="path36"
           d="m 14.8,59.954 c 6.315,0 9.964,-2.747 12.67,-6.478 l -5.986,-4.264 c -1.722,2.09 -3.485,3.485 -6.478,3.485 -4.018,0 -6.847,-3.362 -6.847,-7.667 v -0.082 c 0,-4.182 2.828,-7.626 6.846,-7.626 2.747,0 4.633,1.353 6.273,3.362 l 5.985,-4.633 C 24.721,32.567 20.949,30.107 15.086,30.107 6.396,30.106 0,36.666 0,45.03 v 0.082 c 0,8.57 6.6,14.842 14.8,14.842 z M 41.012,59.38 h 8.323 l 2.05,-5.166 h 11.11 l 2.05,5.166 h 8.53 L 60.855,30.475 H 53.19 L 41.01,59.38 Z m 12.71,-11.357 3.24,-8.118 3.197,8.118 H 53.72 Z m 34.84,11.357 h 7.954 v -8.692 h 3.526 l 5.78,8.692 h 9.144 l -6.847,-10.004 c 3.566,-1.517 5.903,-4.428 5.903,-8.856 v -0.082 c 0,-2.83 -0.86,-5.002 -2.542,-6.683 -1.926,-1.927 -4.96,-3.075 -9.347,-3.075 h -13.57 v 28.7 z m 7.954,-14.924 v -6.93 h 5.248 c 2.624,0 4.305,1.15 4.305,3.445 v 0.083 c 0,2.09 -1.6,3.403 -4.265,3.403 h -5.29 z M 137.752,59.38 V 37.65 h -8.57 v -6.97 h 25.134 v 6.97 h -8.61 V 59.38 Z M 185,60 c -8.284,0 -15,-6.716 -15,-15 0,-8.284 6.716,-15 15,-15 8.284,0 15,6.716 15,15 0,8.284 -6.716,15 -15,15 z" />
      </g>
      <rect
         id="rect3754"
         width="1.5158386"
         height="0.53453904"
         x="117.86422"
         y="48.723984"
         style="stroke-width:0.21612488" />
    </g>
  </g>
</svg>
