<svg width="200" height="47" viewBox="0 0 200 47" fill="none" xmlns="http://www.w3.org/2000/svg">
<path d="M34.8209 23.3809L69.6419 35.1909L34.8209 47.0009L0 35.1909L34.8209 23.3809Z" fill="#7FCDBB" fill-opacity="0.8"/>
<path d="M91.8762 17C93.4362 17 94.7922 17.408 95.9442 18.224C97.1202 19.016 98.0202 20.108 98.6442 21.5C99.2682 22.892 99.5802 24.452 99.5802 26.18C99.5802 27.932 99.2802 29.504 98.6802 30.896C98.1042 32.264 97.2402 33.356 96.0882 34.172C94.9362 34.964 93.5322 35.36 91.8762 35.36C90.6522 35.36 89.5362 35.144 88.5282 34.712C87.5202 34.28 86.7282 33.656 86.1522 32.84V43.712H82.9122V17.36H85.4322L85.7922 19.808C87.2802 17.936 89.3082 17 91.8762 17ZM91.2642 32.48C92.8242 32.48 94.0482 31.928 94.9362 30.824C95.8242 29.696 96.2682 28.148 96.2682 26.18C96.2682 24.212 95.8242 22.676 94.9362 21.572C94.0482 20.444 92.8242 19.88 91.2642 19.88C89.7282 19.88 88.4562 20.42 87.4482 21.5C86.4642 22.58 85.9722 24.14 85.9722 26.18C85.9722 28.292 86.4642 29.876 87.4482 30.932C88.4322 31.964 89.7042 32.48 91.2642 32.48ZM107.965 34.208L100.621 17.36H104.221L109.729 30.464L114.697 17.36H118.297L107.497 43.712H103.897L107.965 34.208ZM136.013 8V35H133.133L132.773 32.84C132.173 33.656 131.393 34.28 130.433 34.712C129.473 35.144 128.453 35.36 127.373 35.36C125.885 35.36 124.529 34.952 123.305 34.136C122.081 33.32 121.109 32.216 120.389 30.824C119.693 29.432 119.345 27.896 119.345 26.216C119.345 24.584 119.669 23.06 120.317 21.644C120.989 20.228 121.937 19.1 123.161 18.26C124.385 17.42 125.789 17 127.373 17C128.429 17 129.425 17.192 130.361 17.576C131.297 17.96 132.101 18.548 132.773 19.34V8H136.013ZM127.949 32.48C128.813 32.48 129.641 32.264 130.433 31.832C131.225 31.376 131.873 30.68 132.377 29.744C132.881 28.808 133.133 27.632 133.133 26.216C133.133 24.896 132.881 23.756 132.377 22.796C131.873 21.836 131.213 21.116 130.397 20.636C129.605 20.132 128.789 19.88 127.949 19.88C126.317 19.88 125.021 20.48 124.061 21.68C123.125 22.856 122.657 24.368 122.657 26.216C122.657 27.992 123.137 29.48 124.097 30.68C125.057 31.88 126.341 32.48 127.949 32.48ZM148.817 35.36C146.801 35.36 145.073 34.952 143.633 34.136C142.217 33.296 141.137 32.168 140.393 30.752C139.649 29.336 139.277 27.764 139.277 26.036C139.277 24.38 139.613 22.868 140.285 21.5C140.981 20.108 141.977 19.016 143.273 18.224C144.593 17.408 146.141 17 147.918 17C150.173 17 151.997 17.66 153.389 18.98C154.805 20.3 155.513 22.124 155.513 24.452C155.513 25.052 155.465 25.628 155.369 26.18H142.589C142.805 28.46 143.501 30.08 144.677 31.04C145.853 32 147.365 32.48 149.213 32.48C151.061 32.48 152.753 32.132 154.289 31.436L154.721 33.992C152.681 34.904 150.713 35.36 148.817 35.36ZM152.166 23.948C152.166 22.676 151.806 21.68 151.086 20.96C150.365 20.24 149.285 19.88 147.845 19.88C146.453 19.88 145.361 20.228 144.569 20.924C143.777 21.596 143.213 22.604 142.877 23.948H152.166ZM166.879 35.36C164.959 35.36 163.303 34.964 161.911 34.172C160.543 33.38 159.511 32.3 158.815 30.932C158.119 29.54 157.771 27.992 157.771 26.288C157.771 23.504 158.551 21.26 160.111 19.556C161.695 17.852 164.035 17 167.131 17C168.955 17 170.563 17.348 171.955 18.044L171.451 20.888C169.987 20.216 168.523 19.88 167.059 19.88C165.139 19.88 163.663 20.432 162.631 21.536C161.599 22.616 161.083 24.152 161.083 26.144C161.083 28.136 161.575 29.696 162.559 30.824C163.567 31.952 165.043 32.516 166.987 32.516C168.547 32.516 170.047 32.156 171.487 31.436L171.919 34.028C171.391 34.388 170.659 34.7 169.723 34.964C168.811 35.228 167.863 35.36 166.879 35.36ZM175.091 8H178.331V25.316L184.811 17.36H188.771L181.751 25.568L188.951 35H184.991L178.331 26.036V35H175.091V8Z" fill="#0C2C84"/>
<path d="M34.8209 15.4082L69.6419 27.2182L34.8209 39.0282L0 27.2182L34.8209 15.4082Z" fill="#1D91C0" fill-opacity="0.8"/>
<path d="M34.8209 7.07812L69.6419 18.8881L34.8209 30.6982L0 18.8881L34.8209 7.07812Z" fill="#0C2C84" fill-opacity="0.8"/>
</svg>
