<?xml version="1.0" encoding="UTF-8" standalone="no"?>
<svg width="36px" height="36px" viewBox="0 0 36 36" version="1.1" xmlns="http://www.w3.org/2000/svg" xmlns:xlink="http://www.w3.org/1999/xlink">
    <!-- Generator: Sketch 40.3 (33839) - http://www.bohemiancoding.com/sketch -->
    <title>high-precision</title>
    <desc>Created with Sketch.</desc>
    <defs>
        <linearGradient x1="21.4661737%" y1="9.07149733%" x2="49.9016193%" y2="99.6864909%" id="linearGradient-1">
            <stop stop-color="#00ADE7" offset="0%"></stop>
            <stop stop-color="#04E3D5" offset="100%"></stop>
        </linearGradient>
    </defs>
    <g id="Page-1" stroke="none" stroke-width="1" fill="none" fill-rule="evenodd">
        <g id="high-precision" fill="url(#linearGradient-1)">
            <g id="Group-2-Copy">
                <g id="noun_128688_cc">
                    <g id="Group">
                        <g>
                            <path d="M31.48,17.6 C31.28,10.48 25.6,4.72 18.4,4.52 L18.4,0 L17.6,0 L17.6,4.52 C10.4,4.68 4.72,10.44 4.52,17.6 L0,17.6 L0,18.4 L4.52,18.4 C4.72,25.52 10.48,31.28 17.6,31.48 L17.6,36 L18.4,36 L18.4,31.48 C25.52,31.28 31.28,25.52 31.48,18.4 L36,18.4 L36,17.6 L31.48,17.6 L31.48,17.6 Z M30.28,18.4 C30.08,24.88 24.88,30.08 18.4,30.28 L18.4,27.2 L17.6,27.2 L17.6,30.28 C11.12,30.08 5.92,24.88 5.72,18.4 L8.8,18.4 L8.8,17.6 L5.72,17.6 C5.92,11.12 11.2,5.88 17.6,5.72 L17.6,9.2 L18.4,9.2 L18.4,5.72 C24.8,5.92 30.08,11.16 30.28,17.6 L26.8,17.6 L26.8,18.4 L30.28,18.4 L30.28,18.4 Z" id="Shape"></path>
                            <ellipse id="Oval" cx="18" cy="18" rx="2.4" ry="2.4"></ellipse>
                            <path d="M18,12.8 C15.12,12.8 12.8,15.12 12.8,18 C12.8,20.88 15.12,23.2 18,23.2 C20.88,23.2 23.2,20.88 23.2,18 C23.2,15.12 20.88,12.8 18,12.8 L18,12.8 Z M18,22.4 C15.56,22.4 13.6,20.44 13.6,18 C13.6,15.56 15.56,13.6 18,13.6 C20.44,13.6 22.4,15.56 22.4,18 C22.4,20.44 20.44,22.4 18,22.4 L18,22.4 Z" id="Shape"></path>
                        </g>
                    </g>
                </g>
            </g>
        </g>
    </g>
</svg>
