<?xml version="1.0" encoding="UTF-8" standalone="no"?>
<svg width="36px" height="36px" viewBox="0 0 36 36" version="1.1" xmlns="http://www.w3.org/2000/svg" xmlns:xlink="http://www.w3.org/1999/xlink">
    <!-- Generator: Sketch 40.3 (33839) - http://www.bohemiancoding.com/sketch -->
    <title>react</title>
    <desc>Created with Sketch.</desc>
    <defs>
        <linearGradient x1="21.4661737%" y1="9.07149733%" x2="49.9016193%" y2="99.6864909%" id="linearGradient-1">
            <stop stop-color="#00ADE7" offset="0%"></stop>
            <stop stop-color="#04E3D5" offset="100%"></stop>
        </linearGradient>
    </defs>
    <g id="Page-1" stroke="none" stroke-width="1" fill="none" fill-rule="evenodd">
        <g id="react" fill="url(#linearGradient-1)">
            <g id="Icon-02-Copy-2" transform="translate(2.000000, 4.000000)">
                <g id="React">
                    <g id="Layer_2">
                        <ellipse id="Oval" cx="16" cy="14.1308655" rx="2.85328597" ry="2.84202504"></ellipse>
                        <path d="M16,20.6414807 C11.9928952,20.6414807 8.49165187,20.1715841 5.8714032,19.2770822 C4.17193606,18.6996189 2.72824156,17.9296679 1.69946714,17.0521502 C0.608170515,16.1236799 0.0284191829,15.1102885 0.0284191829,14.1308655 C0.0284191829,12.2512793 2.0973357,10.4113228 5.57015986,9.21110506 C8.41207815,8.22602069 12.1179396,7.67686445 15.9943162,7.67686445 C19.8024867,7.67686445 23.4571936,8.20903647 26.2820604,9.18279804 C27.9360568,9.74893849 29.3285968,10.4849211 30.3175844,11.3001633 C31.3918295,12.1946652 31.9602131,13.1740882 31.9602131,14.1308655 C31.9602131,16.0840501 29.6468917,18.0598802 25.9182948,19.288405 C23.2809947,20.1602613 19.757016,20.6414807 16,20.6414807 L16,20.6414807 Z M16,9.03560152 C12.3225577,9.03560152 8.68490231,9.56777354 6.02486679,10.4905825 C2.83055062,11.6002177 1.3982238,13.1174741 1.3982238,14.1308655 C1.3982238,15.1838868 2.93854352,16.8426783 6.31474245,17.9919434 C8.7928952,18.8354927 12.1463588,19.2827436 16,19.2827436 C19.6149201,19.2827436 22.9854352,18.8298312 25.4920071,17.9976048 C28.9989343,16.8370169 30.6017762,15.1782254 30.6017762,14.1308655 C30.6017762,13.5930321 30.19254,12.9589548 29.4479574,12.3418617 C28.589698,11.6285248 27.339254,10.9774633 25.844405,10.4622754 C23.1559503,9.54512793 19.6603908,9.03560152 16,9.03560152 L16,9.03560152 Z" id="Shape"></path>
                        <path d="M9.52611012,28.2956995 C8.94635879,28.2956995 8.4348135,28.1711486 8.00284192,27.9220468 C6.37158082,26.9822537 5.80319716,24.2761023 6.49094139,20.6811105 C7.05364121,17.7315188 8.42912966,14.2667392 10.3673179,10.9208492 C12.2714032,7.63723462 14.5563055,4.74991835 16.8127886,2.79673381 C18.1314387,1.6531301 19.4671403,0.815242243 20.6721137,0.373652695 C21.9850799,-0.107566685 23.1218472,-0.107566685 23.9516874,0.36799129 C25.6511545,1.34175286 26.2138544,4.33097441 25.4181172,8.15808383 C24.8554174,10.875558 23.514032,14.1535112 21.6383659,17.3974959 C19.6376554,20.8509526 17.4777975,23.6363636 15.3918295,25.4536745 C14.0390764,26.6312466 12.6465364,27.4917801 11.373357,27.939031 C10.7083481,28.17681 10.0831261,28.2956995 9.52611012,28.2956995 L9.52611012,28.2956995 Z M10.9527531,11.2605335 L11.5438721,11.6002177 C9.7079929,14.7706042 8.34955595,18.1731083 7.82664298,20.9358737 C7.19573712,24.2477953 7.80390764,26.2406097 8.67921847,26.7444747 C8.89520426,26.8690256 9.17939609,26.9369624 9.52611012,26.9369624 C10.6571936,26.9369624 12.4362345,26.2236255 14.4937833,24.4346217 C16.4660746,22.7192161 18.5293073,20.0470332 20.4561279,16.7237888 C22.2635879,13.6043549 23.548135,10.4679369 24.0824156,7.89199782 C24.8269982,4.28568318 24.1847247,2.07773544 23.269627,1.55122482 C22.8035524,1.28513881 22.0476021,1.31910724 21.1381883,1.6531301 C20.0866785,2.03810561 18.8987567,2.7910724 17.705151,3.82710942 C15.5623446,5.68405008 13.3740675,8.44681546 11.5438721,11.6058792 L10.9527531,11.2605335 L10.9527531,11.2605335 Z" id="Shape"></path>
                        <path d="M22.4738899,28.3126837 C20.9278863,28.3126837 18.9669627,27.3842134 16.9207815,25.629178 C14.6358792,23.6703321 12.3111901,20.7547088 10.3673179,17.4088187 L10.3673179,17.4088187 C8.45754885,14.1252041 7.09342806,10.7113772 6.51936057,7.78443114 C6.18401421,6.07468699 6.12149201,4.50647795 6.3374778,3.24398476 C6.57619893,1.86826347 7.13889876,0.888840501 7.97442274,0.407621121 C9.66820604,-0.571801851 12.5499112,0.435928144 15.4827709,3.03451279 C17.5630551,4.87446924 19.7456483,7.67120305 21.6269982,10.9095264 C23.6333925,14.3629831 24.9804618,17.6182907 25.5147425,20.324442 C25.8614565,22.0794774 25.9182948,23.7099619 25.6738899,25.0347305 C25.4124334,26.4444203 24.8213144,27.4464888 23.9687389,27.939031 C23.5424512,28.1881328 23.0365897,28.3126837 22.4738899,28.3126837 L22.4738899,28.3126837 Z M11.549556,16.7294502 C13.391119,19.8998367 15.6760213,22.7701688 17.8131439,24.5988024 C20.3765542,26.7954273 22.4113677,27.2709853 23.2923623,26.7614589 C24.20746,26.2349483 24.8781528,24.0779532 24.1847247,20.590528 C23.6731794,18.0315732 22.3829485,14.9178008 20.450444,11.5945563 C18.6373002,8.47512248 16.5513321,5.79727817 14.5790409,4.0535656 C11.8166963,1.60783887 9.57726465,1.05868263 8.66216696,1.58519325 C8.19609236,1.85127926 7.84937833,2.52498639 7.68454707,3.47610234 C7.49698046,4.57441481 7.55381883,5.97844311 7.860746,7.52400653 C8.40639432,10.3037561 9.71367673,13.5703865 11.549556,16.7294502 L11.549556,16.7294502 L11.549556,16.7294502 Z" id="Shape"></path>
                    </g>
                </g>
            </g>
        </g>
    </g>
</svg>