<?xml version="1.0" encoding="UTF-8" standalone="no"?>
<svg width="91px" height="91px" viewBox="0 0 91 91" version="1.1" xmlns="http://www.w3.org/2000/svg" xmlns:xlink="http://www.w3.org/1999/xlink">
    <!-- Generator: Sketch 40.3 (33839) - http://www.bohemiancoding.com/sketch -->
    <title>Icon 02</title>
    <desc>Created with Sketch.</desc>
    <defs>
        <linearGradient x1="21.4661737%" y1="9.07149733%" x2="49.9016193%" y2="99.6864909%" id="linearGradient-1">
            <stop stop-color="#00ADE7" offset="0%"></stop>
            <stop stop-color="#04E3D5" offset="100%"></stop>
        </linearGradient>
        <circle id="path-2" cx="45.5" cy="45.5" r="45.5"></circle>
        <mask id="mask-3" maskContentUnits="userSpaceOnUse" maskUnits="objectBoundingBox" x="0" y="0" width="91" height="91" fill="white">
            <use xlink:href="#path-2"></use>
        </mask>
    </defs>
    <g id="Page-1" stroke="none" stroke-width="1" fill="none" fill-rule="evenodd">
        <g id="Deck.gl-Large-Header" transform="translate(-675.000000, -1488.000000)">
            <g id="SECTION-2" transform="translate(1.000000, 1317.000000)">
                <g id="Icon-02" transform="translate(674.000000, 171.000000)">
                    <use id="Oval-2-Copy" stroke="url(#linearGradient-1)" mask="url(#mask-3)" stroke-width="2" xlink:href="#path-2"></use>
                    <g id="React" transform="translate(28.000000, 30.000000)" fill="url(#linearGradient-1)">
                        <g id="Layer_2">
                            <ellipse id="Oval" cx="17.5" cy="15.4556342" rx="3.12078153" ry="3.10846489"></ellipse>
                            <path d="M17.5,22.5766195 C13.1172291,22.5766195 9.28774423,22.0626701 6.42184725,21.0843087 C4.56305506,20.4527082 2.98401421,19.6105743 1.85879218,18.6507893 C0.665186501,17.6352749 0.0310834813,16.5268781 0.0310834813,15.4556342 C0.0310834813,13.3998367 2.29396092,11.3873843 6.09236234,10.0746462 C9.20071048,8.99721013 13.2539964,8.3965705 17.4937833,8.3965705 C21.6589698,8.3965705 25.6563055,8.97863364 28.7460036,10.0436854 C30.5550622,10.6629015 32.0781528,11.4678824 33.1598579,12.3595536 C34.3348135,13.3379151 34.9564831,14.409159 34.9564831,15.4556342 C34.9564831,17.5919298 32.4262877,19.752994 28.348135,21.096693 C25.4635879,22.0502858 21.6092362,22.5766195 17.5,22.5766195 L17.5,22.5766195 Z M17.5,9.88268917 C13.4777975,9.88268917 9.4991119,10.4647523 6.58969805,11.4740746 C3.09591474,12.6877382 1.52930728,14.3472373 1.52930728,15.4556342 C1.52930728,16.6073762 3.21403197,18.4216794 6.90674956,19.6786881 C9.61722913,20.6013201 13.2850799,21.0905008 17.5,21.0905008 C21.4538188,21.0905008 25.1403197,20.5951279 27.8818828,19.6848802 C31.7175844,18.4154872 33.4706927,16.601184 33.4706927,15.4556342 C33.4706927,14.8673789 33.0230906,14.1738568 32.2087034,13.4989113 C31.2699822,12.718699 29.9023091,12.0066004 28.2673179,11.4431138 C25.3268206,10.4399837 21.5035524,9.88268917 17.5,9.88268917 L17.5,9.88268917 Z" id="Shape"></path>
                            <path d="M10.4191829,30.9484213 C9.78507993,30.9484213 9.22557726,30.8121938 8.75310835,30.5397387 C6.96891652,29.51184 6.34724689,26.5519869 7.09946714,22.6199646 C7.71492007,19.3938487 9.21936057,15.6042461 11.339254,11.9446788 C13.4218472,8.35322537 15.9209591,5.19522319 18.3889876,3.0589276 C19.8312611,1.80811105 21.2921847,0.891671203 22.6101243,0.408682635 C24.0461812,-0.117651062 25.2895204,-0.117651062 26.1971581,0.402490474 C28.0559503,1.46754219 28.6714032,4.73700327 27.8010657,8.92290419 C27.1856128,11.8951415 25.7184725,15.4804028 23.6669627,19.0285112 C21.4786856,22.8057295 19.116341,25.8522727 16.8348135,27.8399565 C15.3552398,29.127926 13.8321492,30.0691345 12.4396092,30.5583152 C11.7122558,30.818386 11.0284192,30.9484213 10.4191829,30.9484213 L10.4191829,30.9484213 Z M11.9795737,12.3162085 L12.6261101,12.6877382 C10.6181172,16.1553484 9.13232682,19.8768372 8.56039076,22.8986119 C7.87033748,26.5210261 8.53552398,28.7006668 9.4928952,29.2517692 C9.72912966,29.3879967 10.0399645,29.4623027 10.4191829,29.4623027 C11.6563055,29.4623027 13.6021314,28.6820904 15.8525755,26.7253674 C18.0097691,24.8491426 20.2664298,21.9264426 22.3738899,18.291644 C24.3507993,14.8797632 25.7557726,11.4493059 26.3401421,8.63187262 C27.1545293,4.68746598 26.4520426,2.27252314 25.4511545,1.69665215 C24.9413854,1.40562058 24.1145648,1.44277354 23.1198934,1.80811105 C21.9698046,2.22917801 20.6705151,3.05273544 19.3650089,4.18590093 C17.0213144,6.21692978 14.6278863,9.23870441 12.6261101,12.6939303 L11.9795737,12.3162085 L11.9795737,12.3162085 Z" id="Shape"></path>
                            <path d="M24.5808171,30.9669978 C22.8898757,30.9669978 20.7451155,29.9514834 18.5071048,28.0319134 C16.0079929,25.8894257 13.4653641,22.7004627 11.339254,19.0408955 L11.339254,19.0408955 C9.25044405,15.449442 7.75843694,11.7155689 7.13055062,8.51422156 C6.76376554,6.64418889 6.69538188,4.92896026 6.93161634,3.54810833 C7.19271758,2.04341317 7.80817052,0.972169298 8.72202487,0.445835602 C10.5746004,-0.625408274 13.7264654,0.476796407 16.9342806,3.31899837 C19.2095915,5.33145073 21.5968028,8.39037833 23.6545293,11.9322945 C25.8490231,15.7095128 27.3223801,19.2700054 27.9067496,22.2298585 C28.285968,24.1494284 28.348135,25.9327708 28.0808171,27.3817365 C27.794849,28.9235846 27.1483126,30.0195972 26.2158082,30.5583152 C25.749556,30.8307703 25.19627,30.9669978 24.5808171,30.9669978 L24.5808171,30.9669978 Z M12.6323268,18.2978361 C14.6465364,21.7654464 17.1456483,24.9048721 19.4831261,26.9049401 C22.2868561,29.3074986 24.5124334,29.8276402 25.4760213,29.2703457 C26.4769094,28.6944747 27.2104796,26.3352613 26.4520426,22.52089 C25.89254,19.7220332 24.4813499,16.3163446 22.3676732,12.681546 C20.3845471,9.26966522 18.1030195,6.340773 15.9458259,4.43358737 C12.9245115,1.75857376 10.4751332,1.15793413 9.47424512,1.73380512 C8.96447602,2.02483669 8.58525755,2.76170386 8.40497336,3.80198694 C8.19982238,5.00326619 8.26198934,6.53892216 8.59769094,8.22938214 C9.19449378,11.2697333 10.6243339,14.8426102 12.6323268,18.2978361 L12.6323268,18.2978361 L12.6323268,18.2978361 Z" id="Shape"></path>
                        </g>
                    </g>
                </g>
            </g>
        </g>
    </g>
</svg>