<?xml version="1.0" encoding="UTF-8" standalone="no"?>
<svg width="36px" height="36px" viewBox="0 0 36 36" version="1.1" xmlns="http://www.w3.org/2000/svg" xmlns:xlink="http://www.w3.org/1999/xlink">
    <!-- Generator: Sketch 40.3 (33839) - http://www.bohemiancoding.com/sketch -->
    <title>architecture</title>
    <desc>Created with Sketch.</desc>
    <defs>
        <linearGradient x1="21.4661737%" y1="9.07149733%" x2="49.9016193%" y2="99.6864909%" id="linearGradient-1">
            <stop stop-color="#00ADE7" offset="0%"></stop>
            <stop stop-color="#04E3D5" offset="100%"></stop>
        </linearGradient>
    </defs>
    <g id="Page-1" stroke="none" stroke-width="1" fill="none" fill-rule="evenodd">
        <g id="architecture" fill="url(#linearGradient-1)">
            <g id="Icon-03-Copy-2" transform="translate(4.000000, 5.000000)">
                <g id="1476083650_icon-social-buffer-outline">
                    <g id="Layer_1">
                        <g id="Group">
                            <g id="Shape">
                                <path d="M0.56,7.328125 L12.8654545,13.2854167 C13.1854545,13.4385417 13.6145455,13.51875 14.0363636,13.51875 C14.4581818,13.51875 14.8872727,13.4385417 15.2072727,13.2854167 L27.5127273,7.328125 C28.16,7.01458333 28.16,6.50416667 27.5127273,6.190625 L15.2072727,0.233333333 C14.8872727,0.0802083333 14.4581818,0 14.0363636,0 C13.6145455,0 13.1854545,0.0802083333 12.8654545,0.233333333 L0.56,6.190625 C-0.0872727273,6.50416667 -0.0872727273,7.01458333 0.56,7.328125 L0.56,7.328125 Z M13.3672727,1.28333333 C13.4836364,1.225 13.7236364,1.16666667 14.0363636,1.16666667 C14.3490909,1.16666667 14.5818182,1.225 14.7054545,1.28333333 L26.0145455,6.759375 L14.7054545,12.2354167 C14.5890909,12.29375 14.3490909,12.3520833 14.0363636,12.3520833 C13.7236364,12.3520833 13.4909091,12.29375 13.3672727,12.2354167 L2.05818182,6.759375 L13.3672727,1.28333333 L13.3672727,1.28333333 Z"></path>
                                <path d="M27.5127273,12.31125 C27.5127273,12.31125 25.2654545,11.2247917 24.9672727,11.0789583 C24.6690909,10.933125 24.5890909,10.9404167 24.2763636,11.08625 C23.9636364,11.2320833 15.2,15.4758333 15.2,15.4758333 C14.8727273,15.6289583 14.4509091,15.7091667 14.0290909,15.7091667 C13.6072727,15.7091667 13.1781818,15.6289583 12.8581818,15.4758333 C12.8581818,15.4758333 4.32727273,11.34875 3.92727273,11.151875 C3.49090909,10.9404167 3.36727273,10.9404167 2.97454545,11.13 C2.56727273,11.326875 0.545454545,12.3039583 0.545454545,12.3039583 C-0.101818182,12.6175 -0.101818182,13.1279167 0.545454545,13.4414583 L12.8509091,19.39875 C13.1709091,19.551875 13.6,19.6320833 14.0218182,19.6320833 C14.4436364,19.6320833 14.8727273,19.551875 15.1927273,19.39875 L27.4981818,13.4414583 C28.16,13.1352083 28.16,12.6247917 27.5127273,12.31125 L27.5127273,12.31125 Z M14.7054545,18.3560417 C14.5890909,18.414375 14.3490909,18.4727083 14.0363636,18.4727083 C13.7236364,18.4727083 13.4909091,18.414375 13.3672727,18.3560417 L2.05818182,12.88 L3.43272727,12.2164583 L12.3563636,16.5404167 C12.8218182,16.7664583 13.4181818,16.8904167 14.0363636,16.8904167 C14.6545455,16.8904167 15.2436364,16.7664583 15.7163636,16.5404167 L24.64,12.2164583 L26.0145455,12.88 L14.7054545,18.3560417 L14.7054545,18.3560417 Z"></path>
                                <path d="M27.5127273,18.431875 C27.5127273,18.431875 25.2654545,17.3454167 24.9672727,17.1995833 C24.6690909,17.05375 24.5890909,17.0610417 24.2763636,17.206875 C23.9636364,17.3527083 15.2072727,21.60375 15.2072727,21.60375 C14.88,21.756875 14.4581818,21.8370833 14.0363636,21.8370833 C13.6145455,21.8370833 13.1854545,21.756875 12.8654545,21.60375 C12.8654545,21.60375 4.33454545,17.4766667 3.93454545,17.2797917 C3.49818182,17.0683333 3.37454545,17.0683333 2.98181818,17.2579167 C2.57454545,17.4547917 0.552727273,18.431875 0.552727273,18.431875 C-0.0945454545,18.7454167 -0.0945454545,19.2558333 0.552727273,19.569375 L12.8581818,25.5266667 C13.1781818,25.6870833 13.6072727,25.76 14.0290909,25.76 C14.4509091,25.76 14.88,25.6797917 15.2,25.5266667 L27.5054545,19.569375 C28.16,19.2558333 28.16,18.7454167 27.5127273,18.431875 L27.5127273,18.431875 Z M14.7054545,24.4766667 C14.5890909,24.535 14.3490909,24.5933333 14.0363636,24.5933333 C13.7236364,24.5933333 13.4909091,24.535 13.3672727,24.4766667 L2.05818182,19.000625 L3.43272727,18.3370833 L12.3563636,22.6610417 C12.8218182,22.8870833 13.4181818,23.0110417 14.0363636,23.0110417 C14.6545455,23.0110417 15.2436364,22.8870833 15.7163636,22.6610417 L24.64,18.3370833 L26.0145455,19.000625 L14.7054545,24.4766667 L14.7054545,24.4766667 Z"></path>
                            </g>
                        </g>
                    </g>
                </g>
            </g>
        </g>
    </g>
</svg>