<svg fill="none" height="125" viewBox="0 0 395 125" width="395" xmlns="http://www.w3.org/2000/svg" xmlns:xlink="http://www.w3.org/1999/xlink"><linearGradient id="a" gradientUnits="userSpaceOnUse" x1="11.3451" x2="96.032" y1="20.6134" y2="105.3"><stop offset=".2145" stop-color="#3273c2"/><stop offset=".7067" stop-color="#8cb938"/><stop offset="1" stop-color="#f7e052"/></linearGradient><clipPath id="b"><path d="m0 0h395v125h-395z"/></clipPath><g clip-path="url(#b)"><path d="m107.026 31.755-52.9863-30.5914-.3512-.203517-.3511.203517-52.7029 30.4278-.28333.1636-.35117.2035v61.9968l.35117.2035 52.98623 30.5872.3511.204.3512-.204 52.2803-30.1842.702-.403.355-.2035v-61.9968zm-58.6409-22.86574-12.9572 22.43874h-25.91049zm-15.0842 26.12994-6.0775 10.527-18.23274-10.527zm-4.7287 15.5631 21.4291 12.3706-21.4291 12.3706-7.1431-12.3706zm-3.1964-1.8437-6.0776 10.527-12.15515-21.054zm-21.1618-8.2244 12.9572 22.4387-12.9572 22.4387zm15.0842 26.1299 6.0775 10.527-18.23266 10.523zm7.9212 13.7195 6.0775 10.527h-24.30624zm-17.702 14.2142h25.9105l12.9572 22.4392-38.86769-22.4392zm42.3235 21.0542-12.1551-21.0542h12.1551zm0-24.7414h-14.2861l-7.143-12.3707 21.4291-12.3706v24.7412zm0-31.1301-21.4291-12.3707 7.143-12.3706h14.2861zm0-28.4325h-12.1551l12.1551-21.054zm30.1564 17.4106 18.2327-10.527-12.1551 21.0541zm3.9466 14.2143-7.143 12.3706-21.4251-12.3706 21.4251-12.3706zm-5.7902-17.4067-6.0776-10.527h24.3103zm17.7019-14.2182h-25.9104l-12.9573-22.43874zm-42.3234-21.05 12.1551 21.054h-12.1551zm0 24.7412h14.286l7.1431 12.3706-21.4252 12.3707v-24.7413zm0 31.1301 21.4251 12.3706-7.1431 12.3707h-14.286v-24.7413zm0 28.4285h12.1551l-12.1551 21.0542zm3.4557 22.4432 12.9533-22.4392h25.9104zm15.0882-26.1304 6.0776-10.5271 18.2327 10.5271zm7.9212-13.7195 6.0776-10.527 12.1551 21.05zm21.1617 8.2245-12.9572-22.4387 12.9572-22.4387z" fill="url(#a)"/><g fill="#55575b"><path d="m121.611 80.8943h25.32v2.2985h-22.698v19.1222h20.591v2.363h-20.591v19.697h-2.622z"/><path d="m151.345 111.266c0-7.482 6.009-13.5557 13.619-13.5557s13.492 6.0737 13.492 13.5557-5.882 13.62-13.492 13.62-13.619-6.138-13.619-13.62zm24.553 0c0-6.457-4.413-11.317-10.934-11.317-6.52 0-11.061 4.86-11.061 11.317s4.541 11.381 11.061 11.381c6.521 0 10.934-4.924 10.934-11.381z"/><path d="m185.308 114.718v-16.433h2.494v16.05c0 5.307 2.494 8.312 7.482 8.312 5.627 0 9.59-3.771 9.59-9.781v-14.577h2.494v26.09h-2.494l.063-5.754c-1.727 3.898-5.307 6.329-9.912 6.329-5.814-.004-9.717-3.839-9.717-10.236z"/><path d="m214.144 98.285h2.494l-.064 5.818c1.728-3.962 5.371-6.3927 9.976-6.3927 5.818 0 9.721 3.8987 9.721 10.3597v16.305h-2.494v-15.858c0-5.372-2.494-8.504-7.546-8.504-5.627 0-9.593 3.707-9.593 9.785v14.577h-2.494z"/><path d="m243.055 111.266c0-7.674 5.435-13.5556 12.917-13.5556 5.308 0 9.143 2.8776 11.062 6.7756v-26.2813h2.494v46.1703h-2.494l.128-6.524c-1.856 4.03-6.142 7.035-11.19 7.035-7.482 0-12.917-5.946-12.917-13.62m24.171 0c0-6.456-4.35-11.3169-10.934-11.3169-6.461 0-10.615 4.8609-10.615 11.3169 0 6.457 4.158 11.381 10.615 11.381 6.588 0 10.934-4.924 10.934-11.381z"/><path d="m294.976 108.006c0-5.886-2.686-8.1209-6.972-8.1209-3.962 0-6.648 1.6639-8.504 4.4779l-1.787-1.281c2.17-3.3884 5.882-5.3717 10.359-5.3717 5.371 0 9.398 3.2607 9.398 10.0397v16.625h-2.494l.127-4.026c-1.664 2.494-4.541 4.537-9.018 4.537-5.946 0-9.849-2.75-9.849-7.993 0-5.18 4.541-7.61 9.529-7.61h9.207v-1.277zm-8.887 3.324c-3.963 0-7.355 1.536-7.355 5.499s2.622 5.818 7.61 5.818c4.35 0 8.636-2.558 8.636-6.584v-4.733z"/><path d="m308.583 117.467v-17.071h-4.09v-2.111h4.09v-9.1423h2.494v9.1423h7.546v2.111h-7.546v17.008c0 3.834 1.341 5.243 3.52 5.243 2.302 0 3.196-.894 4.158-1.919l1.596 1.536c-1.277 1.469-2.813 2.622-5.754 2.622-3.328 0-6.014-2.111-6.014-7.419"/><path d="m327.135 87.0318c0-1.2132 1.026-2.111 2.111-2.111 1.09 0 2.111.8979 2.111 2.111 0 1.2769-1.025 2.1109-2.111 2.1109-1.085 0-2.111-.834-2.111-2.1109zm.898 11.2532h2.494v26.09h-2.494z"/><path d="m338.033 111.266c0-7.482 6.01-13.5557 13.62-13.5557s13.492 6.0737 13.492 13.5557-5.882 13.62-13.492 13.62-13.62-6.138-13.62-13.62zm24.554 0c0-6.457-4.413-11.317-10.934-11.317-6.524 0-11.062 4.86-11.062 11.317s4.538 11.381 11.062 11.381c6.521 0 10.934-4.924 10.934-11.381z"/><path d="m372.252 98.285h2.494l-.064 5.818c1.728-3.962 5.372-6.3927 9.977-6.3927 5.818 0 9.721 3.8987 9.721 10.3597v16.305h-2.494v-15.858c0-5.372-2.495-8.504-7.546-8.504-5.627 0-9.59 3.707-9.59 9.785v14.577h-2.494v-26.09z"/><path d="m121.611 29.7836c0-16.3451 12.563-28.10123 28.261-28.10123 15.623 0 28.181 11.75613 28.181 28.10123 0 16.3452-12.562 28.1013-28.181 28.1013-15.698 0-28.261-11.7561-28.261-28.1013m47.747 0c0-11.6762-8.053-20.4514-19.486-20.4514s-19.565 8.7752-19.565 20.4514c0 11.6763 8.132 20.4515 19.565 20.4515s19.486-8.7752 19.486-20.4515z"/><path d="m186.908 23.3429h8.213l-.24 6.2811c2.171-4.1861 6.202-7.0034 11.996-7.0034 8.695 0 15.702 7.3266 15.702 17.5543 0 10.2237-7.087 17.714-15.862 17.714-5.634 0-9.665-2.7375-11.596-6.5206v22.8697h-8.213zm27.295 16.828c0-6.1214-3.703-10.3075-9.581-10.3075-5.958 0-9.821 4.1861-9.821 10.3075 0 6.3609 3.863 10.547 9.821 10.547 5.878 0 9.581-4.1861 9.581-10.547"/><path d="m250.445 51.0412c4.43 0 7.65-1.7718 9.582-3.6234l4.752 4.9922c-3.14 3.1405-7.49 5.475-14.25 5.475-11.596 0-19.082-7.4903-19.082-17.6342 0-10.0641 7.893-17.6341 18.037-17.6341 11.512 0 18.037 8.5357 17.474 20.3716h-27.215c.962 4.9124 4.505 8.0529 10.702 8.0529m8.293-13.6875c-.727-4.5891-3.544-7.9731-9.178-7.9731-5.232 0-8.855 2.8972-9.825 7.9731z"/><path d="m275.937 23.3429h8.132l-.159 6.2811c2.095-4.4295 6.361-7.0034 11.433-7.0034 7.49 0 12.642 5.3154 12.642 14.4936v20.0484h-8.133v-19.4059c0-4.8326-2.255-7.6499-7.007-7.6499-5.316 0-8.776 3.2204-8.776 8.6954v18.3564h-8.132z"/><path d="m316.899 48.623 6.924-4.2659c1.931 3.4637 4.186 5.878 8.212 5.878 4.59 0 7.57-2.1748 7.57-8.5357v-39.29071h8.536v39.45431c0 10.8702-6.524 16.026-15.702 16.026-8.129-.004-12.962-4.1901-15.54-9.266"/><path d="m356.857 46.5319 7.003-3.8668c2.578 4.2659 5.878 7.6498 12.562 7.6498 5.555 0 9.502-2.9769 9.502-7.4862 0-4.7527-3.221-6.8438-9.179-9.5014l-3.623-1.6122c-7.973-3.5436-12.802-7.566-12.802-16.022 0-8.13266 6.282-13.93089 15.38-13.93089 7.247 0 12.159 2.7375 15.459 8.61549l-6.684 4.1063c-2.095-3.6234-4.509-5.31538-8.775-5.31538-4.346 0-7.087 2.65768-7.087 6.36088 0 4.1063 2.334 5.9579 7.889 8.3721l3.544 1.6082c9.341 4.1103 14.334 8.4559 14.334 17.2311 0 9.5813-7.491 15.1401-17.794 15.1401-10.391.0039-16.669-5.1478-19.729-11.3491"/></g></g></svg>