<svg xmlns="http://www.w3.org/2000/svg" width="230" height="90" viewBox="0 0 230 90">
  <title>
    CARTO
  </title>
  <g fill="#FFF" fill-rule="evenodd">
    <circle cx="185" cy="45" r="45" fill-opacity=".2"/>
    <path d="M14.8 59.954c6.315 0 9.964-2.747 12.67-6.478l-5.986-4.264c-1.722 2.09-3.485 3.485-6.478 3.485-4.018 0-6.847-3.362-6.847-7.667v-.082c0-4.182 2.828-7.626 6.846-7.626 2.747 0 4.633 1.353 6.273 3.362l5.985-4.633c-2.542-3.484-6.314-5.944-12.177-5.944C6.396 30.106 0 36.666 0 45.03v.082c0 8.57 6.6 14.842 14.8 14.842zm26.212-.574h8.323l2.05-5.166h11.11l2.05 5.166h8.53l-12.22-28.905H53.19L41.01 59.38zm12.71-11.357l3.24-8.118 3.197 8.118H53.72zm34.84 11.357h7.954v-8.692h3.526l5.78 8.692h9.144l-6.847-10.004c3.566-1.517 5.903-4.428 5.903-8.856v-.082c0-2.83-.86-5.002-2.542-6.683-1.926-1.927-4.96-3.075-9.347-3.075h-13.57v28.7zm7.954-14.924v-6.93h5.248c2.624 0 4.305 1.15 4.305 3.445v.083c0 2.09-1.6 3.403-4.265 3.403h-5.29zm41.236 14.924V37.65h-8.57v-6.97h25.134v6.97h-8.61v21.73h-7.954zM185 60c-8.284 0-15-6.716-15-15 0-8.284 6.716-15 15-15 8.284 0 15 6.716 15 15 0 8.284-6.716 15-15 15z"/>
  </g>
</svg>
